<svg width="132" height="132" viewBox="0 0 132 132" fill="none" xmlns="http://www.w3.org/2000/svg">
<path d="M75.59 18.394C78.828 16.7975 82.7491 18.0132 84.5161 21.1614C85.8488 23.5359 88.4708 24.8849 91.1776 24.5887C94.7663 24.1959 98.0351 26.6794 98.6188 30.242C99.059 32.9291 101.062 35.0936 103.706 35.741C107.213 36.5993 109.435 40.051 108.765 43.5985C108.26 46.2741 109.401 48.9929 111.665 50.5058C114.667 52.5118 115.575 56.5154 113.732 59.6197C112.342 61.9611 112.484 64.9064 114.094 67.1024C116.229 70.0139 115.713 74.0866 112.919 76.3734C110.812 78.0982 109.939 80.9146 110.701 83.5288C111.711 86.9948 109.832 90.6453 106.425 91.8387C103.855 92.7389 102.072 95.0868 101.893 97.8039C101.657 101.406 98.6435 104.194 95.0336 104.15C92.3109 104.117 89.8316 105.714 88.7348 108.206C87.2805 111.51 83.4954 113.099 80.1182 111.823C77.571 110.861 74.6953 111.513 72.8122 113.48C70.3155 116.088 66.2151 116.286 63.4779 113.932C61.4135 112.157 58.4882 111.786 56.046 112.99C52.808 114.587 48.8869 113.371 47.1199 110.223C45.7872 107.848 43.1652 106.499 40.4584 106.795C36.8697 107.188 33.6008 104.705 33.0172 101.142C32.577 98.4549 30.5744 96.2905 27.9296 95.6431C24.423 94.7848 22.2007 91.333 22.8707 87.7856C23.3761 85.11 22.2346 82.3912 19.9707 80.8783C16.9691 78.8723 16.0614 74.8687 17.9043 71.7644C19.2943 69.423 19.1515 66.4777 17.5416 64.2817C15.4071 61.3701 15.9235 57.2975 18.717 55.0107C20.824 53.2859 21.6972 50.4695 20.9354 47.8553C19.9255 44.3893 21.8036 40.7388 25.2108 39.5454C27.7806 38.6452 29.5644 36.2973 29.7427 33.5802C29.9791 29.9778 32.9925 27.1899 36.6024 27.2337C39.3251 27.2668 41.8044 25.6706 42.9012 23.1783C44.3554 19.874 48.1406 18.2848 51.5178 19.5607C54.065 20.523 56.9407 19.871 58.8238 17.9042C61.3205 15.2966 65.4209 15.0978 68.158 17.4518C70.2225 19.2273 73.1478 19.5981 75.59 18.394Z" fill="#253746"/>
<path d="M89.3636 46.1512C89.6542 46.6193 90.0683 46.9058 90.606 47.0108C91.1438 47.1159 91.6353 47.0062 92.0806 46.6818C92.5259 46.3574 92.8094 45.8839 92.931 45.2613C93.0526 44.6386 92.9681 44.0933 92.6775 43.6252C92.387 43.1571 91.9729 42.8705 91.4351 42.7655C90.8974 42.6605 90.4059 42.7702 89.9605 43.0946C89.5152 43.4189 89.2318 43.8925 89.1102 44.5151C88.9886 45.1377 89.0731 45.6831 89.3636 46.1512ZM88.8994 41.6827C89.7357 41.1115 90.6869 40.93 91.7529 41.1382C92.819 41.3463 93.6273 41.8715 94.1778 42.7135C94.7395 43.548 94.9136 44.5124 94.6999 45.6067C94.4861 46.7011 93.9611 47.5339 93.1248 48.1051C92.2998 48.6687 91.3543 48.8464 90.2882 48.6382C89.2222 48.43 88.4083 47.9087 87.8465 47.0742C87.296 46.2322 87.1276 45.264 87.3413 44.1696C87.555 43.0753 88.0744 42.2463 88.8994 41.6827Z" fill="white"/>
<path d="M82.4505 46.9606L83.5421 41.371L81.2779 40.9288L81.5958 39.3014L87.893 40.5312L87.5752 42.1586L85.311 41.7164L84.2194 47.3061L82.4505 46.9606Z" fill="white"/>
<path d="M78.8624 43.4687L80.6313 43.8141C80.5026 44.122 80.3333 44.4121 80.1234 44.6845C79.9229 44.9588 79.6658 45.222 79.3522 45.4741C79.0403 45.7169 78.649 45.8902 78.1782 45.9941C77.7187 46.0904 77.22 46.0861 76.6823 45.9811C75.6162 45.7729 74.8023 45.2516 74.2405 44.4171C73.69 43.5751 73.5216 42.6069 73.7354 41.5125C73.9491 40.4182 74.4684 39.5892 75.2935 39.0256C76.1298 38.4543 77.0809 38.2728 78.147 38.481C78.6847 38.586 79.1474 38.7743 79.5351 39.0459C79.9341 39.3099 80.2324 39.613 80.43 39.9552C80.6276 40.2974 80.7686 40.6286 80.853 40.9487C80.9468 41.2706 80.9973 41.589 81.0043 41.9037L79.2355 41.5583C79.0998 40.7483 78.6311 40.265 77.8292 40.1084C77.2914 40.0034 76.7999 40.1131 76.3546 40.4374C75.9093 40.7618 75.6258 41.2353 75.5042 41.858C75.3826 42.4806 75.4671 43.026 75.7577 43.4941C76.0482 43.9621 76.4624 44.2487 77.0001 44.3537C77.8303 44.5158 78.451 44.2208 78.8624 43.4687Z" fill="white"/>
<path d="M67.7062 39.674L71.3855 40.3925C71.3946 39.8948 71.2729 39.4646 71.0206 39.1019C70.7776 38.741 70.4156 38.5136 69.9344 38.4197C69.425 38.3202 68.9757 38.3891 68.5866 38.6265C68.2087 38.8564 67.9153 39.2055 67.7062 39.674ZM70.688 42.4599L72.5276 42.8192C72.4454 42.9892 72.3115 43.1736 72.1257 43.3724C71.9513 43.5636 71.71 43.7711 71.4018 43.9949C71.105 44.2112 70.722 44.3665 70.2531 44.461C69.7859 44.5461 69.2882 44.537 68.7599 44.4339C67.6939 44.2257 66.88 43.7044 66.3182 42.8699C65.7677 42.0279 65.5993 41.0597 65.813 39.9653C66.0267 38.871 66.5461 38.042 67.3711 37.4783C68.2074 36.9071 69.1586 36.7256 70.2246 36.9338C71.2152 37.1273 71.9819 37.6394 72.5249 38.4701C73.079 39.2933 73.2567 40.2144 73.0577 41.2332C73.0411 41.3181 72.9938 41.4852 72.9157 41.7344L72.8487 41.927L67.4713 40.8768C67.4473 41.401 67.5794 41.8528 67.8677 42.2323C68.156 42.6118 68.5501 42.8504 69.0501 42.948C69.4275 43.0217 69.7639 43.0042 70.0593 42.8954C70.3567 42.7771 70.5662 42.632 70.688 42.4599Z" fill="white"/>
<path d="M55.2732 41.6531L56.6826 34.4361L59.3714 34.9612L60.016 39.935L60.299 39.9903L62.7676 35.6244L65.4563 36.1495L64.0469 43.3665L62.278 43.0211L63.1762 38.422L62.8931 38.3667L60.5091 42.6756L58.811 42.344L58.2233 37.4547L57.9403 37.3995L57.0421 41.9986L55.2732 41.6531Z" fill="white"/>
<path d="M48.7637 40.3818L50.1455 33.3063L48.0936 32.9056L48.439 31.1367L50.0664 31.4545C50.3494 31.5098 50.5186 31.3959 50.5738 31.1129L50.6982 30.4761L52.5378 30.8354L50.6033 40.7411L48.7637 40.3818Z" fill="white"/>
<path d="M72.0332 82.9883C72.1897 83.0379 72.3597 83.076 72.5433 83.1025C72.7268 83.1291 72.9019 83.1282 73.0686 83.0999C73.2438 83.0662 73.3939 82.9978 73.5191 82.8947C73.6512 82.793 73.7405 82.6381 73.7871 82.4299C73.8571 82.1176 73.8066 81.8548 73.6357 81.6417C73.4647 81.4285 73.2439 81.2916 72.9733 81.231C72.5985 81.147 72.286 81.2083 72.0357 81.4146C71.7939 81.6156 71.6345 81.9042 71.5575 82.2805L70.1521 81.9658C70.2499 81.5942 70.392 81.2689 70.5784 80.9899C70.7732 80.7056 71.0031 80.4764 71.268 80.3025C71.5398 80.1301 71.8416 80.0192 72.1734 79.9695C72.5067 79.913 72.8608 79.9267 73.2356 80.0106C73.5271 80.0759 73.8085 80.1862 74.0798 80.3417C74.3526 80.4903 74.5841 80.677 74.7743 80.9017C74.9714 81.1281 75.1149 81.3825 75.2047 81.665C75.2945 81.9475 75.3029 82.2518 75.2298 82.578C75.1506 82.932 74.9939 83.2249 74.7598 83.4567C74.5326 83.6901 74.2381 83.8173 73.8763 83.8383L73.8716 83.8591C74.254 84.0395 74.5262 84.3045 74.6884 84.6542C74.8507 85.004 74.8851 85.387 74.7919 85.8034C74.7064 86.1852 74.5539 86.5082 74.3344 86.7724C74.1219 87.0382 73.8681 87.2438 73.5732 87.3891C73.2783 87.5344 72.9561 87.6226 72.6066 87.6537C72.257 87.6848 71.9053 87.6607 71.5514 87.5814C71.1419 87.4897 70.7803 87.3468 70.4666 87.1527C70.1599 86.9601 69.9134 86.7263 69.7272 86.4514C69.5425 86.1695 69.4207 85.8508 69.3619 85.495C69.31 85.1409 69.3349 84.7529 69.4367 84.3311L70.8421 84.6457C70.8055 84.8416 70.7948 85.036 70.8099 85.2289C70.8266 85.4148 70.8722 85.5854 70.9468 85.7406C71.0229 85.8888 71.1288 86.0182 71.2644 86.1287C71.4069 86.2408 71.5858 86.3209 71.8009 86.3691C72.1341 86.4437 72.4377 86.406 72.7118 86.256C72.9874 86.0991 73.1649 85.8437 73.2441 85.4897C73.3063 85.2121 73.2982 84.988 73.2198 84.8174C73.1483 84.6483 73.0363 84.5139 72.8837 84.4141C72.7327 84.3074 72.5573 84.2281 72.3576 84.1761C72.1663 84.1187 71.9805 84.0698 71.8001 84.0294L72.0332 82.9883Z" fill="white" fill-opacity="0.7"/>
<path d="M64.2925 81.102C64.3718 80.6825 64.5067 80.3082 64.697 79.9791C64.8888 79.643 65.1253 79.368 65.4065 79.154C65.6892 78.9331 66.0134 78.787 66.3792 78.7159C66.7534 78.6393 67.1592 78.65 67.5964 78.7479C67.9296 78.8225 68.2337 78.9453 68.5088 79.1162C68.7909 79.2887 69.0247 79.4977 69.2102 79.7433C69.3957 79.9889 69.5226 80.2688 69.5907 80.5829C69.6658 80.8985 69.6637 81.2333 69.5845 81.5873C69.5021 81.9551 69.3724 82.2577 69.1954 82.495C69.0183 82.7323 68.8094 82.9333 68.5684 83.098C68.329 83.2558 68.0657 83.39 67.7786 83.5006C67.4984 83.6128 67.2147 83.7242 66.9275 83.8348C66.6419 83.9385 66.3602 84.0576 66.0823 84.1922C65.8043 84.3267 65.5472 84.4987 65.3108 84.7082L68.7567 85.4797L68.4723 86.7498L63.1212 85.5517C63.216 85.1283 63.3574 84.7737 63.5453 84.4878C63.7402 84.2034 63.9689 83.9631 64.2315 83.7668C64.4957 83.5636 64.7899 83.389 65.1141 83.2429C65.4453 83.0984 65.7911 82.9535 66.1516 82.8083C66.3361 82.733 66.531 82.66 66.7363 82.5894C66.9432 82.5118 67.135 82.4199 67.3118 82.3138C67.4956 82.2091 67.6555 82.081 67.7915 81.9292C67.9345 81.779 68.0308 81.5929 68.0805 81.3708C68.1598 81.0168 68.1171 80.7194 67.9524 80.4784C67.7962 80.2321 67.5584 80.0732 67.2392 80.0017C67.024 79.9535 66.8285 79.9644 66.6525 80.0343C66.485 80.0988 66.3374 80.2043 66.2099 80.3506C66.084 80.4901 65.9776 80.6558 65.8909 80.8477C65.8127 81.0343 65.7518 81.2247 65.7083 81.419L64.2925 81.102Z" fill="white" fill-opacity="0.7"/>
<path d="M59.6375 80.9126C59.5909 81.1208 59.5411 81.3756 59.4882 81.6772C59.4368 81.9718 59.4147 82.2657 59.422 82.5588C59.4377 82.8466 59.5036 83.1055 59.6198 83.3356C59.7359 83.5657 59.9432 83.7141 60.2416 83.7809C60.547 83.8493 60.8012 83.8042 61.0044 83.6456C61.2145 83.4886 61.3845 83.2825 61.5145 83.0274C61.653 82.7668 61.7618 82.4924 61.841 82.204C61.9217 81.9087 61.9854 81.6569 62.032 81.4487C62.0599 81.3238 62.0899 81.1738 62.1218 80.9987C62.1622 80.8182 62.1895 80.6312 62.2037 80.4376C62.2248 80.2456 62.2313 80.0539 62.2231 79.8625C62.2234 79.6658 62.1948 79.4845 62.1372 79.3185C62.0796 79.1526 61.9915 79.009 61.8729 78.8877C61.7543 78.7664 61.5944 78.6832 61.3931 78.6381C61.1918 78.593 61.0117 78.6001 60.8527 78.6592C60.7006 78.7199 60.5632 78.813 60.4403 78.9386C60.3244 79.0657 60.2211 79.2175 60.1306 79.394C60.0416 79.5636 59.9657 79.7397 59.903 79.9225C59.8402 80.1052 59.7851 80.286 59.7378 80.4649C59.6989 80.6384 59.6655 80.7876 59.6375 80.9126ZM58.1592 80.5815C58.3177 79.8736 58.52 79.2958 58.7661 78.848C59.0206 78.3948 59.3019 78.0496 59.6101 77.8125C59.9183 77.5754 60.246 77.4301 60.5932 77.3767C60.9474 77.3248 61.3049 77.3393 61.6658 77.4201C62.0337 77.5024 62.3632 77.6418 62.6545 77.8382C62.9528 78.0362 63.1907 78.3081 63.3683 78.654C63.5529 79.0014 63.6602 79.4336 63.6903 79.9505C63.7288 80.462 63.6688 81.0718 63.5103 81.7797C63.3471 82.5084 63.1375 83.1029 62.8814 83.563C62.6338 84.0177 62.3525 84.3629 62.0373 84.5984C61.7291 84.8355 61.398 84.98 61.0438 85.0319C60.6966 85.0854 60.339 85.0709 59.9712 84.9886C59.6103 84.9077 59.2807 84.7684 58.9825 84.5704C58.6912 84.374 58.4568 84.1028 58.2791 83.7569C58.1015 83.4111 57.9942 82.9789 57.9572 82.4604C57.9287 81.9366 57.9961 81.3103 58.1592 80.5815Z" fill="white" fill-opacity="0.7"/>
<path d="M52.7229 78.5115C52.8023 78.092 52.9371 77.7177 53.1274 77.3886C53.3193 77.0525 53.5558 76.7775 53.8369 76.5635C54.1196 76.3426 54.4438 76.1965 54.8096 76.1253C55.1839 76.0488 55.5896 76.0595 56.0269 76.1574C56.36 76.232 56.6642 76.3547 56.9393 76.5257C57.2213 76.6981 57.4551 76.9072 57.6407 77.1528C57.8262 77.3984 57.953 77.6783 58.0212 77.9924C58.0963 78.308 58.0942 78.6428 58.0149 78.9967C57.9326 79.3646 57.8029 79.6672 57.6258 79.9045C57.4488 80.1418 57.2398 80.3428 56.9988 80.5075C56.7595 80.6653 56.4962 80.7994 56.209 80.9101C55.9288 81.0223 55.6451 81.1337 55.358 81.2443C55.0724 81.348 54.7906 81.4671 54.5127 81.6016C54.2348 81.7362 53.9776 81.9082 53.7412 82.1176L57.1871 82.8892L56.9027 84.1593L51.5517 82.9612C51.6465 82.5378 51.7878 82.1832 51.9758 81.8973C52.1706 81.6129 52.3993 81.3726 52.6619 81.1763C52.9261 80.9731 53.2203 80.7984 53.5445 80.6524C53.8757 80.5079 54.2215 80.363 54.582 80.2178C54.7665 80.1425 54.9614 80.0695 55.1667 79.9989C55.3736 79.9213 55.5655 79.8294 55.7423 79.7233C55.9261 79.6186 56.086 79.4904 56.222 79.3387C56.3649 79.1885 56.4613 79.0023 56.511 78.7803C56.5902 78.4263 56.5475 78.1288 56.3828 77.8879C56.2266 77.6416 55.9889 77.4826 55.6696 77.4112C55.4545 77.363 55.2589 77.3739 55.0829 77.4438C54.9154 77.5083 54.7679 77.6138 54.6404 77.7601C54.5144 77.8995 54.4081 78.0652 54.3214 78.2572C54.2431 78.4437 54.1823 78.6342 54.1388 78.8285L52.7229 78.5115Z" fill="white" fill-opacity="0.7"/>
<path d="M87.6404 70.9341L89.1272 71.2245L88.6958 73.4338L91.1166 71.613L92.8652 71.9545L90.1373 73.9001L92.1012 77.425L90.3003 77.0733L88.8238 74.4479L88.4422 74.7321L88.07 76.6377L86.5832 76.3474L87.6404 70.9341Z" fill="white" fill-opacity="0.7"/>
<path d="M81.3623 69.708L82.7863 69.9861L82.0706 73.6508L84.828 70.3849L86.5138 70.7141L85.4566 76.1274L84.0326 75.8493L84.7483 72.1846L81.9908 75.4505L80.3051 75.1213L81.3623 69.708Z" fill="white" fill-opacity="0.7"/>
<path d="M75.1556 68.4959L76.6424 68.7863L76.258 70.7547L78.3626 71.1657L78.747 69.1973L80.2338 69.4877L79.1767 74.9009L77.6898 74.6106L78.1336 72.3384L76.029 71.9274L75.5853 74.1995L74.0985 73.9092L75.1556 68.4959Z" fill="white" fill-opacity="0.7"/>
<path d="M68.8774 67.2698L70.3014 67.5479L69.5857 71.2126L72.3431 67.9467L74.0289 68.2759L72.9717 73.6892L71.5477 73.4111L72.2634 69.7464L69.506 73.0123L67.8202 72.6831L68.8774 67.2698Z" fill="white" fill-opacity="0.7"/>
<path d="M61.766 71.5878C61.7032 71.5755 61.6075 71.5459 61.479 71.4991C61.3505 71.4523 61.2505 71.4074 61.1792 71.3645L61.398 70.2441C61.4371 70.2663 61.484 70.2863 61.5384 70.3042C61.5943 70.3151 61.6501 70.326 61.706 70.3369C61.8316 70.3614 61.9508 70.3448 62.0635 70.2871C62.1846 70.2238 62.299 70.0831 62.4068 69.865C62.5216 69.6483 62.638 69.3305 62.7561 68.9115C62.8811 68.4939 63.0111 67.9395 63.1461 67.2485L63.3526 66.1909L67.7502 67.0498L66.6931 72.463L65.2063 72.1727L66.0446 67.8797L64.5159 67.5812C64.3381 68.3436 64.1639 68.9944 63.9933 69.5335C63.8228 70.0727 63.633 70.5067 63.4239 70.8354C63.2217 71.1655 62.9856 71.3912 62.7156 71.5123C62.4525 71.6349 62.136 71.66 61.766 71.5878Z" fill="white" fill-opacity="0.7"/>
<path d="M56.597 64.8716L58.0838 65.1619L57.6523 67.3712L60.0732 65.5505L61.8218 65.8919L59.0939 67.8376L61.0578 71.3625L59.2568 71.0108L57.7804 68.3854L57.3988 68.6696L57.0266 70.5752L55.5398 70.2849L56.597 64.8716Z" fill="white" fill-opacity="0.7"/>
<path d="M52.4417 65.2232L50.6617 64.8755L50.8805 63.7552L55.9273 64.7408L55.7085 65.8611L53.9285 65.5135L53.0901 69.8064L51.6033 69.5161L52.4417 65.2232Z" fill="white" fill-opacity="0.7"/>
<path d="M46.7474 68.7091C46.3216 68.6259 45.9506 68.4846 45.6345 68.2852C45.3197 68.0788 45.0682 67.8268 44.88 67.5291C44.6917 67.2315 44.5653 66.8952 44.5009 66.5203C44.4434 66.1467 44.4555 65.7505 44.5373 65.3317C44.6164 64.9269 44.7563 64.5629 44.9571 64.2398C45.1579 63.9166 45.405 63.6533 45.6984 63.4497C45.9931 63.2392 46.3223 63.0933 46.686 63.0121C47.0567 62.9324 47.4479 62.9327 47.8598 63.0131C48.2926 63.0976 48.6573 63.2522 48.954 63.4768C49.2577 63.7028 49.4912 63.973 49.6544 64.2875C49.826 64.5964 49.9329 64.9397 49.975 65.3176C50.0172 65.6954 50.0008 66.0762 49.9258 66.4601C49.9163 66.509 49.9067 66.5579 49.8972 66.6067C49.889 66.6486 49.8767 66.6933 49.8601 66.7408L45.9546 65.9781C45.8815 66.4638 45.9355 66.8367 46.1166 67.0967C46.2977 67.3567 46.5977 67.5276 47.0165 67.6094C47.3167 67.668 47.5893 67.6452 47.8343 67.5409C48.0807 67.4295 48.2446 67.2949 48.3262 67.1369L49.635 67.3925C49.2988 68.0008 48.8871 68.4023 48.3998 68.597C47.9125 68.7917 47.3617 68.829 46.7474 68.7091ZM48.5573 65.5081C48.5612 65.1175 48.4914 64.8068 48.3481 64.5759C48.2117 64.3464 47.9621 64.1962 47.5991 64.1253C47.3548 64.0776 47.1477 64.0806 46.9778 64.1344C46.8092 64.1812 46.6645 64.2543 46.5436 64.3539C46.4296 64.4549 46.3388 64.5676 46.271 64.692C46.2102 64.8178 46.1661 64.9324 46.1387 65.0357L48.5573 65.5081Z" fill="white" fill-opacity="0.7"/>
<path d="M39.2867 61.491L42.3964 62.0983C42.6338 62.1447 42.8517 62.2162 43.0502 62.3129C43.2501 62.4027 43.4159 62.5184 43.5476 62.6601C43.6877 62.7962 43.7861 62.9603 43.8428 63.1525C43.8995 63.3448 43.9046 63.5595 43.8583 63.7969C43.8065 64.0621 43.6952 64.2795 43.5244 64.4491C43.3549 64.6116 43.149 64.72 42.9065 64.7741C43.1707 64.9054 43.376 65.0977 43.5222 65.3509C43.6697 65.5971 43.7067 65.9086 43.6331 66.2856C43.5813 66.5508 43.4868 66.7751 43.3495 66.9585C43.2206 67.1362 43.0587 67.2785 42.864 67.3854C42.6705 67.4853 42.4553 67.5484 42.2183 67.5745C41.9813 67.6007 41.7372 67.5893 41.4859 67.5402L38.2295 66.9043L39.2867 61.491ZM40.9829 66.442C41.1086 66.4665 41.2321 66.4834 41.3535 66.4926C41.4762 66.4948 41.5878 66.4804 41.6881 66.4492C41.7883 66.4181 41.8753 66.3626 41.9488 66.2828C42.0238 66.1959 42.0762 66.0757 42.1062 65.9222C42.1362 65.7686 42.1293 65.6368 42.0856 65.5268C42.0488 65.4182 41.9864 65.3299 41.8982 65.262C41.81 65.194 41.7044 65.1408 41.5815 65.1023C41.46 65.0568 41.3329 65.0211 41.2002 64.9952L40.1637 64.7928L39.8835 66.2273L40.9829 66.442ZM41.3115 64.1474C41.4232 64.1692 41.5327 64.1833 41.6402 64.1898C41.7476 64.1963 41.8473 64.1868 41.9392 64.1613C42.0325 64.1287 42.1111 64.0789 42.175 64.0116C42.2402 63.9374 42.2864 63.8305 42.3137 63.6909C42.3396 63.5583 42.3356 63.4488 42.3017 63.3625C42.2692 63.2692 42.2152 63.1934 42.1396 63.1351C42.071 63.0783 41.9822 63.0319 41.8733 62.9962C41.7713 62.9618 41.6645 62.9336 41.5528 62.9118L40.5685 62.7196L40.3272 63.9551L41.3115 64.1474Z" fill="white" fill-opacity="0.7"/>
<path d="M92.2858 65.1796C91.86 65.0965 91.489 64.9552 91.1729 64.7558C90.8581 64.5493 90.6066 64.2973 90.4183 63.9997C90.2301 63.702 90.1037 63.3658 90.0393 62.9908C89.9818 62.6173 89.9939 62.2211 90.0757 61.8023C90.1548 61.3974 90.2947 61.0334 90.4955 60.7103C90.6963 60.3872 90.9434 60.1238 91.2368 59.9203C91.5315 59.7097 91.8607 59.5638 92.2244 59.4827C92.5951 59.4029 92.9863 59.4032 93.3982 59.4837C93.831 59.5682 94.1957 59.7227 94.4924 59.9474C94.7961 60.1733 95.0296 60.4436 95.1928 60.7581C95.3644 61.067 95.4713 61.4103 95.5134 61.7881C95.5556 62.1659 95.5392 62.5468 95.4642 62.9307C95.4547 62.9796 95.4451 63.0284 95.4356 63.0773C95.4274 63.1192 95.415 63.1639 95.3985 63.2114L91.493 62.4486C91.4199 62.9344 91.4739 63.3072 91.655 63.5673C91.8361 63.8273 92.1361 63.9982 92.5549 64.08C92.8551 64.1386 93.1276 64.1157 93.3727 64.0114C93.619 63.9001 93.783 63.7655 93.8646 63.6075L95.1734 63.8631C94.8372 64.4713 94.4255 64.8728 93.9382 65.0675C93.4509 65.2622 92.9001 65.2996 92.2858 65.1796ZM94.0957 61.9786C94.0996 61.5881 94.0298 61.2773 93.8865 61.0464C93.7501 60.8169 93.5005 60.6667 93.1375 60.5958C92.8932 60.5481 92.6861 60.5511 92.5161 60.6049C92.3476 60.6517 92.2029 60.7249 92.082 60.8245C91.968 60.9254 91.8772 61.0381 91.8094 61.1626C91.7486 61.2884 91.7045 61.4029 91.677 61.5063L94.0957 61.9786Z" fill="white" fill-opacity="0.7"/>
<path d="M86.1749 58.2252L90.2584 59.0227L90.0396 60.143L87.4429 59.6359L86.6045 63.9288L85.1177 63.6385L86.1749 58.2252Z" fill="white" fill-opacity="0.7"/>
<path d="M79.9157 57.0028L81.4025 57.2932L81.0181 59.2617L83.1227 59.6727L83.5071 57.7042L84.9939 57.9946L83.9368 63.4078L82.4499 63.1175L82.8937 60.8454L80.7891 60.4344L80.3454 62.7065L78.8586 62.4161L79.9157 57.0028Z" fill="white" fill-opacity="0.7"/>
<path d="M73.6377 55.7768L75.0617 56.0549L74.346 59.7196L77.1034 56.4536L78.7892 56.7828L77.732 62.1961L76.308 61.918L77.0237 58.2533L74.2663 61.5193L72.5805 61.1901L73.6377 55.7768Z" fill="white" fill-opacity="0.7"/>
<path d="M69.4823 56.1283L67.7023 55.7807L67.9211 54.6604L72.9679 55.646L72.7491 56.7663L70.9691 56.4187L70.1307 60.7116L68.6439 60.4213L69.4823 56.1283Z" fill="white" fill-opacity="0.7"/>
<path d="M62.1036 53.5243L63.5276 53.8024L62.8119 57.4671L65.5693 54.2011L67.2551 54.5303L66.1979 59.9436L64.7739 59.6655L65.4896 56.0008L62.7322 59.2668L61.0464 58.9375L62.1036 53.5243ZM64.7957 53.3761C64.5513 53.3284 64.3264 53.2555 64.121 53.1574C63.9225 53.0606 63.7545 52.9372 63.6171 52.7872C63.4811 52.6302 63.3827 52.4479 63.3217 52.2404C63.2678 52.0342 63.2674 51.795 63.3206 51.5227L64.4305 51.7395C64.3981 51.9796 64.4198 52.165 64.4958 52.2957C64.5717 52.4265 64.7248 52.5144 64.9551 52.5594C65.1785 52.603 65.3528 52.5827 65.4779 52.4984C65.6045 52.4072 65.6951 52.2401 65.7498 51.9971L66.8596 52.2139C66.8065 52.4861 66.7126 52.7069 66.5781 52.8763C66.4505 53.0471 66.2942 53.1796 66.1091 53.2739C65.9254 53.3612 65.7199 53.4116 65.4926 53.4252C65.2653 53.4388 65.033 53.4224 64.7957 53.3761Z" fill="white" fill-opacity="0.7"/>
<path d="M57.51 58.3882C57.0842 58.3051 56.7132 58.1638 56.3971 57.9643C56.0823 57.7579 55.8308 57.5059 55.6425 57.2083C55.4543 56.9106 55.3279 56.5743 55.2634 56.1994C55.206 55.8259 55.2181 55.4297 55.2999 55.0109C55.379 54.606 55.5189 54.242 55.7197 53.9189C55.9205 53.5958 56.1676 53.3324 56.4609 53.1288C56.7557 52.9183 57.0849 52.7724 57.4486 52.6913C57.8193 52.6115 58.2105 52.6118 58.6224 52.6922C59.0551 52.7768 59.4199 52.9313 59.7166 53.1559C60.0203 53.3819 60.2538 53.6522 60.417 53.9667C60.5886 54.2755 60.6954 54.6189 60.7376 54.9967C60.7798 55.3745 60.7634 55.7554 60.6884 56.1393C60.6788 56.1881 60.6693 56.237 60.6598 56.2859C60.6516 56.3278 60.6392 56.3724 60.6227 56.4199L56.7172 55.6572C56.6441 56.143 56.6981 56.5158 56.8792 56.7758C57.0603 57.0359 57.3603 57.2068 57.7791 57.2886C58.0792 57.3472 58.3518 57.3243 58.5968 57.22C58.8432 57.1087 59.0072 56.974 59.0888 56.8161L60.3976 57.0717C60.0614 57.6799 59.6497 58.0814 59.1624 58.2761C58.675 58.4708 58.1243 58.5082 57.51 58.3882ZM59.3199 55.1872C59.3237 54.7967 59.254 54.4859 59.1107 54.255C58.9743 54.0255 58.7247 53.8753 58.3617 53.8044C58.1174 53.7567 57.9103 53.7597 57.7403 53.8135C57.5718 53.8603 57.427 53.9335 57.3061 54.0331C57.1922 54.134 57.1014 54.2467 57.0336 54.3711C56.9728 54.497 56.9287 54.6115 56.9012 54.7149L59.3199 55.1872Z" fill="white" fill-opacity="0.7"/>
<path d="M49.6903 51.1001L51.1039 51.3761L50.9689 52.0672L50.9898 52.0713C51.2286 51.8135 51.5005 51.6456 51.8056 51.5675C52.1107 51.4894 52.4308 51.4831 52.7659 51.5485C53.1917 51.6317 53.5425 51.7835 53.8183 52.0041C54.094 52.2246 54.3073 52.4873 54.4579 52.792C54.6085 53.0968 54.6979 53.4368 54.7261 53.8118C54.7557 54.1799 54.733 54.556 54.658 54.9399C54.5871 55.3029 54.4701 55.6423 54.3069 55.9583C54.1438 56.2743 53.9358 56.5416 53.6829 56.7604C53.437 56.9805 53.149 57.138 52.8188 57.233C52.4957 57.3293 52.1352 57.3386 51.7373 57.2609C51.4022 57.1954 51.1045 57.0685 50.8442 56.8799C50.5923 56.6858 50.4015 56.4384 50.2718 56.1377L50.2508 56.1336L49.7499 58.6989L48.263 58.4085L49.6903 51.1001ZM51.5561 56.0733C51.8005 56.121 52.0124 56.1117 52.1921 56.0453C52.3787 55.9803 52.5358 55.8805 52.6636 55.7461C52.7996 55.606 52.9084 55.4388 52.9898 55.2445C53.0725 55.0433 53.1357 54.831 53.1794 54.6076C53.2216 54.3912 53.2388 54.1736 53.2308 53.9546C53.2298 53.737 53.1927 53.5377 53.1193 53.3567C53.0473 53.1688 52.9371 53.0095 52.7887 52.8791C52.6486 52.743 52.4598 52.6518 52.2225 52.6055C51.9782 52.5578 51.762 52.5699 51.5741 52.6419C51.3944 52.7083 51.2366 52.8115 51.1005 52.9516C50.9715 53.0931 50.8648 53.2679 50.7807 53.4761C50.6979 53.6774 50.6354 53.8862 50.5931 54.1026C50.5495 54.3259 50.5282 54.5464 50.5292 54.764C50.5385 54.976 50.5764 55.1718 50.6427 55.3514C50.7175 55.5254 50.8255 55.677 50.967 55.8061C51.1155 55.9365 51.3118 56.0256 51.5561 56.0733Z" fill="white" fill-opacity="0.7"/>
<path d="M40.7343 49.351L43.8441 49.9583C44.0814 50.0046 44.2993 50.0762 44.4978 50.1729C44.6977 50.2627 44.8635 50.3784 44.9953 50.5201C45.1354 50.6561 45.2337 50.8203 45.2904 51.0125C45.3471 51.2047 45.3522 51.4195 45.3059 51.6568C45.2541 51.9221 45.1428 52.1395 44.972 52.309C44.8025 52.4716 44.5966 52.5799 44.3541 52.634C44.6184 52.7654 44.8236 52.9576 44.9698 53.2108C45.1174 53.457 45.1543 53.7686 45.0807 54.1455C45.0289 54.4108 44.9344 54.6351 44.7971 54.8184C44.6682 54.9962 44.5064 55.1385 44.3116 55.2454C44.1181 55.3453 43.9029 55.4083 43.6659 55.4345C43.4289 55.4607 43.1848 55.4492 42.9335 55.4002L39.6771 54.7642L40.7343 49.351ZM42.4305 54.3019C42.5562 54.3265 42.6797 54.3433 42.8011 54.3525C42.9239 54.3548 43.0354 54.3403 43.1357 54.3092C43.236 54.278 43.3229 54.2225 43.3964 54.1427C43.4714 54.0559 43.5238 53.9357 43.5538 53.7821C43.5838 53.6286 43.5769 53.4968 43.5332 53.3868C43.4964 53.2782 43.434 53.1899 43.3458 53.1219C43.2576 53.054 43.1521 53.0007 43.0291 52.9623C42.9076 52.9168 42.7805 52.8811 42.6479 52.8552L41.6113 52.6527L41.3311 54.0872L42.4305 54.3019ZM42.7591 52.0073C42.8708 52.0291 42.9803 52.0433 43.0878 52.0498C43.1952 52.0562 43.2949 52.0467 43.3868 52.0212C43.4801 51.9887 43.5587 51.9388 43.6226 51.8716C43.6878 51.7974 43.734 51.6905 43.7613 51.5508C43.7872 51.4182 43.7832 51.3087 43.7494 51.2224C43.7169 51.1291 43.6628 51.0533 43.5872 50.9951C43.5186 50.9382 43.4298 50.8919 43.3209 50.8561C43.2189 50.8217 43.1121 50.7936 43.0004 50.7718L42.0162 50.5796L41.7749 51.8151L42.7591 52.0073Z" fill="white" fill-opacity="0.7"/>
</svg>
