<svg width="171" height="171" viewBox="0 0 171 171" fill="none" xmlns="http://www.w3.org/2000/svg">
<path d="M95.3349 21.8451C99.5349 19.5447 104.801 20.932 107.322 25.0033V25.0033C109.223 28.074 112.775 29.7122 116.345 29.1652V29.1652C121.079 28.44 125.553 31.5447 126.529 36.2327V36.2327C127.266 39.7686 130.043 42.5228 133.585 43.2299V43.2299C138.281 44.1673 141.423 48.6149 140.738 53.3543V53.3543C140.221 56.9289 141.888 60.4668 144.975 62.3427V62.3427C149.067 64.8298 150.498 70.0837 148.233 74.3028V74.3028C146.525 77.485 146.882 81.38 149.141 84.1984V84.1984C152.136 87.9351 151.684 93.3617 148.112 96.5516V96.5516C145.418 98.9576 144.422 102.74 145.58 106.161V106.161C147.116 110.696 144.836 115.641 140.389 117.417V117.417C137.034 118.757 134.804 121.97 134.723 125.581V125.581C134.615 130.368 130.781 134.235 125.994 134.383V134.383C122.384 134.494 119.19 136.751 117.878 140.117V140.117C116.14 144.578 111.214 146.9 106.666 145.402V145.402C103.235 144.272 99.4614 145.3 97.078 148.014V148.014C93.9181 151.612 88.4954 152.11 84.7338 149.146V149.146C81.8966 146.911 77.9988 146.587 74.831 148.322V148.322C70.631 150.622 65.3653 149.235 62.844 145.163V145.163C60.9424 142.093 57.3907 140.455 53.8205 141.002V141.002C49.087 141.727 44.6133 138.622 43.6366 133.934V133.934C42.8999 130.398 40.1226 127.644 36.5807 126.937V126.937C31.8846 125.999 28.7426 121.552 29.4282 116.812V116.812C29.9453 113.238 28.2775 109.7 25.191 107.824V107.824C21.0988 105.337 19.6674 100.083 21.9326 95.864V95.864C23.6411 92.6818 23.2839 88.7868 21.0251 85.9684V85.9684C18.0303 82.2317 18.4823 76.805 22.0539 73.6151V73.6151C24.7477 71.2092 25.7442 67.4269 24.5856 64.006V64.006C23.0495 59.4703 25.3301 54.5255 29.7774 52.7495V52.7495C33.1316 51.41 35.3616 48.1967 35.4429 44.5858V44.5858C35.5507 39.7983 39.3851 35.9317 44.1715 35.7839V35.7839C47.7816 35.6724 50.9762 33.4156 52.2876 30.0502V30.0502C54.0263 25.5883 58.9519 23.2663 63.5002 24.7645V24.7645C66.9307 25.8944 70.7045 24.8663 73.0878 22.1525V22.1525C76.2477 18.5543 81.6704 18.057 85.4321 21.0204V21.0204C88.2692 23.2556 92.1671 23.5802 95.3349 21.8451V21.8451Z" fill="#FFF3A9"/>
<rect width="82.8353" height="81.178" transform="translate(50.5038 39.6868) rotate(8.58549)" fill="#FFF3A9"/>
<path d="M95.6744 110.916L95.6329 110.91L92.6194 113.896L95.1665 114.28L95.6744 110.916ZM94.922 115.9L90.8245 115.281L91.0961 113.482L96.1572 108.469L97.9152 108.734L97.0354 114.562L98.3228 114.757L98.0782 116.376L96.7908 116.182L96.4523 118.425L94.5834 118.142L94.922 115.9Z" fill="#253746"/>
<path d="M83.9852 110.44C84.0504 109.884 84.1923 109.381 84.411 108.933C84.6311 108.475 84.9153 108.093 85.2636 107.787C85.6133 107.472 86.0242 107.251 86.4965 107.124C86.9793 106.989 87.5115 106.966 88.0929 107.053C88.5358 107.12 88.9453 107.253 89.3212 107.451C89.7064 107.651 90.0317 107.903 90.2973 108.207C90.5628 108.512 90.7547 108.866 90.8729 109.271C91.0004 109.677 91.0286 110.116 90.9575 110.587C90.8837 111.076 90.7418 111.484 90.532 111.811C90.3221 112.138 90.0671 112.42 89.7669 112.658C89.4681 112.887 89.1359 113.087 88.7702 113.258C88.4137 113.431 88.0527 113.603 87.687 113.774C87.3227 113.936 86.9649 114.118 86.6135 114.32C86.2621 114.522 85.9413 114.771 85.6512 115.067L90.2333 115.758L89.9783 117.447L82.863 116.373C82.948 115.81 83.1003 115.333 83.3198 114.941C83.5487 114.551 83.8259 114.215 84.1515 113.934C84.4785 113.644 84.8475 113.388 85.2585 113.167C85.6786 112.947 86.118 112.725 86.5765 112.502C86.811 112.386 87.0594 112.273 87.3217 112.161C87.5853 112.041 87.8279 111.903 88.0496 111.747C88.2805 111.594 88.478 111.411 88.642 111.2C88.8153 110.99 88.9242 110.737 88.9688 110.442C89.0398 109.971 88.9565 109.586 88.7186 109.286C88.4914 108.978 88.1655 108.792 87.741 108.728C87.4549 108.684 87.1999 108.717 86.9759 108.824C86.7626 108.924 86.5793 109.076 86.4259 109.279C86.2738 109.474 86.1499 109.7 86.0542 109.96C85.969 110.211 85.9069 110.466 85.8679 110.724L83.9852 110.44Z" fill="#253746"/>
<path d="M77.8743 110.622C77.8325 110.899 77.7909 111.237 77.7494 111.637C77.7094 112.027 77.7076 112.414 77.7442 112.797C77.7914 113.172 77.9016 113.505 78.0748 113.795C78.2481 114.086 78.5331 114.261 78.9299 114.321C79.336 114.382 79.6647 114.3 79.916 114.073C80.1765 113.848 80.38 113.563 80.5267 113.217C80.6839 112.863 80.801 112.494 80.878 112.109C80.9564 111.715 81.0164 111.379 81.0582 111.102C81.0833 110.936 81.1087 110.737 81.1343 110.505C81.1705 110.265 81.189 110.018 81.1897 109.763C81.1996 109.51 81.1904 109.258 81.162 109.009C81.1443 108.751 81.09 108.516 80.9993 108.304C80.9086 108.092 80.78 107.913 80.6135 107.765C80.4471 107.617 80.23 107.523 79.9624 107.482C79.6948 107.442 79.4596 107.468 79.2569 107.56C79.0635 107.653 78.8921 107.788 78.7429 107.964C78.6029 108.141 78.4818 108.349 78.3795 108.588C78.2787 108.819 78.1956 109.056 78.1303 109.301C78.065 109.546 78.0097 109.788 77.9642 110.027C77.9294 110.257 77.8994 110.456 77.8743 110.622ZM75.9086 110.325C76.0507 109.384 76.2621 108.609 76.5429 108C76.8342 107.383 77.1706 106.905 77.5522 106.566C77.9337 106.227 78.3492 106.007 78.7988 105.905C79.2577 105.804 79.727 105.79 80.2069 105.863C80.6961 105.937 81.1403 106.089 81.5398 106.319C81.9485 106.55 82.285 106.884 82.5495 107.321C82.8232 107.758 83.0036 108.314 83.0907 108.988C83.1883 109.654 83.1661 110.458 83.024 111.399C82.8777 112.368 82.6582 113.166 82.3654 113.792C82.0833 114.41 81.7469 114.888 81.3561 115.225C80.9746 115.564 80.5544 115.784 80.0956 115.884C79.646 115.986 79.1766 116 78.6875 115.927C78.2076 115.854 77.7633 115.702 77.3547 115.471C76.9552 115.24 76.6233 114.907 76.3588 114.471C76.0943 114.034 75.9139 113.478 75.8176 112.803C75.732 112.12 75.7623 111.294 75.9086 110.325Z" fill="#253746"/>
<path d="M68.601 108.117C68.6661 107.561 68.8081 107.058 69.0268 106.61C69.2469 106.152 69.5311 105.771 69.8794 105.464C70.229 105.149 70.64 104.928 71.1122 104.801C71.5951 104.666 72.1272 104.643 72.7086 104.731C73.1516 104.797 73.5611 104.93 73.937 105.128C74.3222 105.328 74.6475 105.58 74.913 105.885C75.1786 106.189 75.3705 106.544 75.4887 106.948C75.6161 107.355 75.6443 107.793 75.5733 108.264C75.4994 108.753 75.3576 109.161 75.1477 109.488C74.9379 109.815 74.6829 110.097 74.3827 110.335C74.0839 110.564 73.7516 110.764 73.3859 110.935C73.0295 111.108 72.6684 111.28 72.3028 111.451C71.9385 111.613 71.5806 111.795 71.2292 111.997C70.8778 112.199 70.5571 112.448 70.267 112.744L74.8491 113.436L74.5941 115.125L67.4787 114.05C67.5637 113.487 67.716 113.01 67.9356 112.618C68.1644 112.228 68.4416 111.893 68.7673 111.611C69.0943 111.321 69.4633 111.065 69.8742 110.844C70.2944 110.624 70.7337 110.403 71.1922 110.179C71.4268 110.064 71.6752 109.95 71.9374 109.839C72.201 109.718 72.4437 109.58 72.6654 109.425C72.8963 109.271 73.0937 109.088 73.2578 108.877C73.431 108.667 73.54 108.415 73.5845 108.119C73.6556 107.649 73.5722 107.263 73.3344 106.963C73.1071 106.655 72.7813 106.469 72.3567 106.405C72.0706 106.362 71.8156 106.394 71.5917 106.502C71.3784 106.602 71.195 106.753 71.0416 106.957C70.8896 107.151 70.7657 107.378 70.6699 107.637C70.5848 107.888 70.5227 108.143 70.4837 108.402L68.601 108.117Z" fill="#253746"/>
<path d="M116.96 104.512C116.618 104.461 116.306 104.371 116.023 104.243C115.741 104.116 115.502 103.948 115.307 103.739C115.112 103.53 114.97 103.282 114.881 102.995C114.802 102.709 114.79 102.382 114.845 102.013C114.907 101.606 115.026 101.285 115.203 101.047C115.392 100.802 115.608 100.617 115.853 100.494C116.108 100.372 116.384 100.296 116.681 100.265C116.989 100.226 117.294 100.206 117.596 100.205C117.898 100.203 118.195 100.21 118.485 100.226C118.775 100.241 119.035 100.238 119.265 100.216C119.495 100.194 119.682 100.142 119.827 100.06C119.973 99.969 120.056 99.8212 120.078 99.6168C120.108 99.4137 120.096 99.2421 120.042 99.1017C119.997 98.9628 119.919 98.8519 119.809 98.7692C119.71 98.6787 119.583 98.6123 119.429 98.5702C119.285 98.5202 119.126 98.482 118.95 98.4555C118.563 98.397 118.246 98.434 117.999 98.5667C117.752 98.6994 117.581 98.9568 117.486 99.3388L115.52 99.042C115.616 98.594 115.789 98.233 116.038 97.9591C116.288 97.676 116.584 97.4658 116.926 97.3286C117.268 97.1914 117.638 97.1152 118.036 97.0999C118.437 97.0753 118.84 97.0937 119.246 97.155C119.606 97.2094 119.966 97.2921 120.327 97.4032C120.689 97.5051 121.011 97.6528 121.294 97.8465C121.576 98.0401 121.794 98.2854 121.947 98.5823C122.1 98.8792 122.145 99.2399 122.081 99.6644L121.519 103.388C121.47 103.711 121.442 104.023 121.434 104.324C121.426 104.625 121.458 104.856 121.528 105.018L119.534 104.717C119.514 104.6 119.498 104.485 119.487 104.37C119.487 104.247 119.491 104.125 119.5 104.004C119.138 104.279 118.734 104.45 118.29 104.515C117.846 104.58 117.403 104.579 116.96 104.512ZM117.89 103.322C118.278 103.38 118.587 103.361 118.819 103.264C119.051 103.167 119.231 103.038 119.359 102.878C119.488 102.709 119.576 102.533 119.622 102.351C119.678 102.171 119.714 102.025 119.731 101.915L119.841 101.181C119.747 101.242 119.637 101.287 119.51 101.315C119.384 101.334 119.245 101.346 119.094 101.351C118.942 101.357 118.786 101.357 118.626 101.352C118.467 101.346 118.306 101.346 118.145 101.35C117.984 101.354 117.831 101.368 117.686 101.394C117.54 101.419 117.406 101.465 117.283 101.531C117.17 101.589 117.072 101.674 116.989 101.784C116.907 101.894 116.851 102.042 116.824 102.226C116.796 102.411 116.805 102.568 116.852 102.698C116.899 102.818 116.973 102.924 117.073 103.014C117.174 103.096 117.296 103.161 117.439 103.211C117.583 103.261 117.733 103.298 117.89 103.322Z" fill="#253746"/>
<path d="M107.987 95.6534L109.952 95.9502L109.511 98.8711L112.583 96.3473L114.894 96.6963L111.428 99.4011L114.202 103.912L111.821 103.552L109.737 100.193L109.252 100.588L108.872 103.107L106.906 102.81L107.987 95.6534Z" fill="#253746"/>
<path d="M99.524 94.3757L101.393 94.6579L101.255 95.5715L101.283 95.5757C101.581 95.2243 101.928 94.9888 102.324 94.8692C102.719 94.7496 103.139 94.7232 103.582 94.7901C104.145 94.8751 104.613 95.0544 104.987 95.3279C105.361 95.6015 105.655 95.9338 105.87 96.3249C106.085 96.716 106.221 97.1567 106.279 97.6468C106.339 98.1278 106.33 98.6221 106.254 99.1296C106.181 99.6095 106.047 100.061 105.851 100.485C105.655 100.908 105.397 101.27 105.078 101.571C104.768 101.874 104.399 102.097 103.972 102.24C103.554 102.384 103.081 102.417 102.555 102.337C102.112 102.271 101.715 102.121 101.363 101.888C101.022 101.648 100.758 101.335 100.571 100.948L100.543 100.943L100.031 104.335L98.0652 104.038L99.524 94.3757ZM102.251 100.791C102.574 100.839 102.851 100.815 103.083 100.718C103.324 100.622 103.525 100.483 103.684 100.299C103.855 100.108 103.988 99.8825 104.084 99.6232C104.181 99.3547 104.252 99.0728 104.296 98.7775C104.34 98.4914 104.35 98.205 104.327 97.9184C104.313 97.6332 104.253 97.374 104.147 97.1409C104.042 96.8985 103.889 96.6959 103.687 96.5333C103.495 96.3628 103.243 96.2539 102.929 96.2065C102.606 96.1578 102.323 96.1859 102.081 96.2909C101.849 96.388 101.648 96.5323 101.477 96.7236C101.316 96.9164 101.186 97.1516 101.088 97.4294C100.991 97.6979 100.92 97.9752 100.877 98.2613C100.833 98.5566 100.817 98.8469 100.831 99.1321C100.855 99.4095 100.916 99.664 101.013 99.8958C101.12 100.12 101.271 100.312 101.463 100.474C101.665 100.636 101.928 100.742 102.251 100.791Z" fill="#253746"/>
<path d="M92.5992 100.834C92.2577 100.783 91.9456 100.693 91.6628 100.566C91.3801 100.438 91.1412 100.27 90.9461 100.061C90.7511 99.8521 90.6092 99.6041 90.5204 99.317C90.4409 99.0312 90.4289 98.7038 90.4847 98.3346C90.546 97.9286 90.6654 97.6068 90.8428 97.3693C91.0309 97.1239 91.2475 96.9395 91.4927 96.8161C91.7471 96.694 92.0229 96.6177 92.3201 96.5871C92.628 96.5486 92.9331 96.5286 93.2353 96.527C93.5376 96.5255 93.8339 96.5324 94.1242 96.5479C94.4145 96.5634 94.6745 96.5602 94.9044 96.5383C95.1342 96.5164 95.3214 96.4644 95.4659 96.3824C95.6119 96.2912 95.6955 96.1433 95.717 95.9389C95.7476 95.7359 95.7358 95.5642 95.6815 95.4238C95.6364 95.2849 95.5587 95.174 95.4485 95.0913C95.3489 95.0008 95.222 94.9344 95.0679 94.8923C94.9244 94.8423 94.765 94.8041 94.5897 94.7776C94.2021 94.7191 93.885 94.7562 93.6384 94.8888C93.3919 95.0215 93.2209 95.2789 93.1254 95.6609L91.1597 95.3641C91.2557 94.9161 91.4281 94.5551 91.6772 94.2812C91.9276 93.9981 92.2236 93.7879 92.5652 93.6507C92.9069 93.5135 93.2771 93.4373 93.6758 93.422C94.076 93.3974 94.4791 93.4158 94.8851 93.4771C95.2451 93.5315 95.6054 93.6142 95.9662 93.7253C96.3284 93.8272 96.6506 93.9749 96.9329 94.1686C97.2151 94.3622 97.4329 94.6075 97.5863 94.9044C97.7397 95.2013 97.7844 95.562 97.7203 95.9865L97.1581 99.7103C97.1093 100.033 97.0811 100.345 97.0734 100.646C97.0658 100.947 97.0969 101.178 97.1669 101.34L95.1735 101.039C95.1533 100.923 95.1377 100.807 95.1268 100.692C95.1264 100.569 95.1307 100.447 95.1396 100.326C94.777 100.601 94.3737 100.772 93.9297 100.837C93.4857 100.902 93.0422 100.901 92.5992 100.834ZM93.5294 99.6438C93.917 99.7024 94.2266 99.683 94.4584 99.5859C94.6902 99.4887 94.8701 99.3601 94.9981 99.2001C95.1274 99.0309 95.2153 98.8553 95.2616 98.6736C95.3172 98.4932 95.3533 98.3476 95.37 98.2369L95.4808 97.5032C95.3866 97.5645 95.276 97.6091 95.1491 97.6371C95.0235 97.6559 94.8848 97.668 94.733 97.6734C94.5811 97.6788 94.4254 97.6789 94.2657 97.6737C94.106 97.6685 93.9457 97.6678 93.7846 97.6718C93.6235 97.6758 93.4703 97.6905 93.3249 97.7157C93.1795 97.741 93.0452 97.7867 92.9219 97.8531C92.8092 97.9116 92.7115 97.9959 92.6288 98.1062C92.5461 98.2164 92.4908 98.3638 92.4629 98.5484C92.4351 98.7329 92.4444 98.8901 92.4909 99.0198C92.5388 99.1403 92.6125 99.2458 92.7121 99.3364C92.8131 99.4177 92.9353 99.4834 93.0788 99.5333C93.2223 99.5833 93.3725 99.6201 93.5294 99.6438Z" fill="#253746"/>
<path d="M79.6356 88.5838L82.6949 89.0457L83.9805 96.1917L84.0082 96.1958L87.2216 89.7291L90.281 90.191L88.7887 100.075L86.7538 99.7677L87.8113 92.7631L87.7836 92.7589L84.3035 99.3978L82.6285 99.1449L81.253 91.8438L81.2254 91.8396L80.1783 98.775L78.1433 98.4678L79.6356 88.5838Z" fill="#253746"/>
<path d="M68.008 94.1908C67.513 94.0311 67.1346 93.7238 66.8729 93.269C66.6204 92.8155 66.5388 92.2935 66.628 91.7029C66.6753 91.3891 66.7746 91.1067 66.9257 90.8558C67.0875 90.5971 67.2899 90.3822 67.5328 90.2112C67.7757 90.0402 68.0486 89.921 68.3514 89.8534C68.6556 89.7766 68.983 89.7647 69.3337 89.8177L73.6666 90.4718L72.5861 97.6287L70.6204 97.3319L71.0007 94.8125L70.0733 94.6725L67.741 96.8972L65.3323 96.5336L68.008 94.1908ZM71.4856 91.6009L69.9213 91.3647C69.4691 91.2965 69.1474 91.3328 68.9562 91.4739C68.7664 91.6057 68.6513 91.8054 68.6109 92.073C68.5691 92.3499 68.6141 92.5832 68.7459 92.773C68.887 92.9642 69.1882 93.0947 69.6496 93.1643L71.2139 93.4005L71.4856 91.6009Z" fill="#253746"/>
<path d="M61.0646 96.0733C60.5016 95.9883 60.0073 95.824 59.5816 95.5804C59.1558 95.3368 58.8058 95.0291 58.5316 94.6573C58.2587 94.2763 58.0695 93.8418 57.9638 93.3539C57.8581 92.866 57.8485 92.336 57.9349 91.7638C58.0212 91.1916 58.1869 90.688 58.432 90.2531C58.6784 89.8089 58.9875 89.4497 59.3592 89.1754C59.7324 88.892 60.1583 88.6967 60.637 88.5896C61.1171 88.4733 61.6386 88.4577 62.2015 88.5426C62.7645 88.6276 63.2581 88.7966 63.6825 89.0494C64.1174 89.2944 64.4713 89.6074 64.7442 89.9884C65.0184 90.3602 65.2077 90.7947 65.312 91.2918C65.4177 91.7797 65.4273 92.3098 65.3409 92.8819C65.2545 93.4541 65.0888 93.9577 64.8438 94.3927C64.5988 94.8276 64.2897 95.1868 63.9166 95.4703C63.5448 95.7445 63.1149 95.9345 62.627 96.0402C62.1484 96.1473 61.6275 96.1583 61.0646 96.0733ZM61.2861 94.6059C61.6184 94.6561 61.905 94.6333 62.146 94.5375C62.3962 94.4432 62.6019 94.2996 62.7632 94.1068C62.9351 93.9063 63.0689 93.6763 63.1647 93.417C63.2618 93.1485 63.332 92.8712 63.3752 92.5852C63.4184 92.2991 63.4332 92.0134 63.4196 91.7282C63.4061 91.443 63.3461 91.1838 63.2397 90.9506C63.1425 90.7188 62.9884 90.5209 62.7771 90.3569C62.5766 90.185 62.3101 90.074 61.9779 90.0239C61.6457 89.9737 61.3584 90.0011 61.116 90.1061C60.875 90.2019 60.6692 90.3454 60.4988 90.5368C60.3375 90.7295 60.2083 90.9602 60.1111 91.2287C60.014 91.4972 59.9438 91.7745 59.9006 92.0606C59.8574 92.3467 59.8426 92.6323 59.8561 92.9175C59.8711 93.1935 59.9265 93.452 60.0222 93.693C60.1286 93.9262 60.2828 94.1241 60.4848 94.2867C60.6868 94.4494 60.9539 94.5558 61.2861 94.6059Z" fill="#253746"/>
<path d="M46.7582 83.62L49.8175 84.0819L51.1031 91.2279L51.1308 91.2321L54.3442 84.7653L57.4035 85.2272L55.9113 95.1112L53.8764 94.804L54.9339 87.7994L54.9062 87.7952L51.4261 94.4341L49.7511 94.1812L48.3756 86.88L48.348 86.8758L47.3009 93.8112L45.2659 93.504L46.7582 83.62Z" fill="#253746"/>
<path d="M104.901 77.9948L106.783 78.2791L106.052 83.1241L109.483 78.6866L111.712 79.0231L110.631 86.18L108.748 85.8957L109.48 81.0507L106.049 85.4882L103.82 85.1517L104.901 77.9948Z" fill="#253746"/>
<path d="M96.6003 76.7416L98.483 77.0259L97.7515 81.871L101.182 77.4334L103.411 77.7699L102.331 84.9268L100.448 84.6426L101.179 79.7975L97.7486 84.235L95.5198 83.8985L96.6003 76.7416Z" fill="#253746"/>
<path d="M86.3802 75.1986L89.2319 75.6292L89.9273 81.0578L89.9827 81.0662L92.2497 76.0848L95.1014 76.5153L94.0209 83.6722L92.1659 83.3922L92.9873 77.9518L92.9457 77.9456L90.5878 83.1539L88.7328 82.8738L88.0176 77.2015L87.976 77.1952L87.1547 82.6356L85.2997 82.3555L86.3802 75.1986Z" fill="#253746"/>
<path d="M80.6321 81.8349C80.0691 81.7499 79.5748 81.5856 79.149 81.342C78.7247 81.0891 78.3807 80.7729 78.1171 80.3933C77.8535 80.0137 77.6688 79.5799 77.5631 79.092C77.4667 78.6055 77.4603 78.0854 77.5439 77.5316C77.6247 76.9964 77.7876 76.5113 78.0326 76.0763C78.2776 75.6413 78.5867 75.2821 78.9599 74.9986C79.3344 74.7059 79.7578 74.4961 80.2301 74.3692C80.7115 74.2437 81.2245 74.222 81.769 74.3042C82.3412 74.3906 82.8281 74.5727 83.2298 74.8504C83.6408 75.1296 83.9621 75.4707 84.1939 75.8738C84.4362 76.2691 84.5957 76.7132 84.6723 77.2062C84.7489 77.6991 84.7489 78.1994 84.6723 78.707C84.6625 78.7716 84.6528 78.8362 84.643 78.9008C84.6347 78.9562 84.621 79.0154 84.602 79.0787L79.4385 78.2991C79.3701 78.9401 79.4619 79.4259 79.714 79.7565C79.9662 80.0872 80.3691 80.2944 80.9228 80.378C81.3196 80.4379 81.6757 80.3925 81.9911 80.2419C82.3078 80.0821 82.5152 79.8963 82.6133 79.6846L84.3437 79.9458C83.9372 80.7623 83.42 81.3119 82.7921 81.5947C82.1642 81.8774 81.4442 81.9575 80.6321 81.8349ZM82.8244 77.536C82.8073 77.0237 82.6983 76.6202 82.4974 76.3256C82.3057 76.0324 81.9699 75.8495 81.49 75.7771C81.167 75.7283 80.8956 75.744 80.6759 75.8241C80.4575 75.8949 80.2719 75.9991 80.119 76.1364C79.9753 76.2752 79.8626 76.4281 79.7807 76.5951C79.7081 76.7635 79.6568 76.9162 79.6266 77.0532L82.8244 77.536Z" fill="#253746"/>
<path d="M69.9686 72.7209L71.8374 73.003L71.6994 73.9167L71.7271 73.9208C72.0256 73.5695 72.3726 73.334 72.7683 73.2144C73.1639 73.0947 73.5832 73.0684 74.0262 73.1353C74.5891 73.2202 75.0576 73.3995 75.4316 73.6731C75.8056 73.9467 76.1 74.279 76.3147 74.6701C76.5294 75.0612 76.6658 75.5018 76.7239 75.992C76.7835 76.4729 76.7749 76.9672 76.6983 77.4748C76.6258 77.9547 76.4916 78.4064 76.2955 78.8298C76.0994 79.2533 75.8418 79.6156 75.5226 79.9166C75.2126 80.2191 74.8439 80.4419 74.4164 80.585C73.9981 80.7295 73.526 80.7621 73 80.6826C72.557 80.6158 72.1595 80.4661 71.8076 80.2336C71.4663 79.9933 71.2022 79.6797 71.0152 79.2928L70.9875 79.2886L70.4755 82.6801L68.5097 82.3834L69.9686 72.7209ZM72.6955 79.1358C73.0185 79.1846 73.2959 79.1604 73.5276 79.0633C73.7686 78.9675 73.969 78.8278 74.1289 78.6443C74.2994 78.453 74.4325 78.2276 74.5283 77.9684C74.6255 77.6999 74.6963 77.418 74.7409 77.1226C74.7841 76.8365 74.7943 76.5502 74.7715 76.2636C74.7579 75.9784 74.698 75.7192 74.5916 75.486C74.4866 75.2436 74.3331 75.0411 74.1311 74.8785C73.9398 74.708 73.6872 74.5991 73.3734 74.5517C73.0504 74.5029 72.7677 74.531 72.5253 74.636C72.2935 74.7332 72.0924 74.8774 71.9219 75.0688C71.7607 75.2615 71.6308 75.4968 71.5322 75.7745C71.435 76.043 71.3649 76.3203 71.3217 76.6064C71.2771 76.9017 71.2616 77.192 71.2752 77.4772C71.2993 77.7546 71.36 78.0092 71.4572 78.241C71.565 78.4649 71.7152 78.6575 71.908 78.8187C72.11 78.9814 72.3725 79.0871 72.6955 79.1358Z" fill="#253746"/>
<path d="M61.8979 71.5024L68.4734 72.4951L67.3929 79.652L65.4271 79.3552L66.284 73.6796L63.64 73.2804L62.7831 78.9561L60.8174 78.6593L61.8979 71.5024Z" fill="#253746"/>
<path d="M113.022 63.5432L110.668 63.1879L110.892 61.7067L117.564 62.7141L117.341 64.1953L114.987 63.84L114.13 69.5157L112.165 69.2189L113.022 63.5432Z" fill="#253746"/>
<path d="M104.576 68.2573C104.235 68.2057 103.923 68.1161 103.64 67.9885C103.357 67.8608 103.118 67.6926 102.923 67.4838C102.728 67.275 102.586 67.0271 102.497 66.7399C102.418 66.4542 102.406 66.1267 102.462 65.7576C102.523 65.3515 102.642 65.0297 102.82 64.7922C103.008 64.5469 103.224 64.3625 103.47 64.239C103.724 64.117 104 64.0406 104.297 64.01C104.605 63.9715 104.91 63.9515 105.212 63.95C105.515 63.9484 105.811 63.9554 106.101 63.9709C106.391 63.9864 106.651 63.9832 106.881 63.9612C107.111 63.9393 107.298 63.8873 107.443 63.8053C107.589 63.7141 107.673 63.5663 107.694 63.3618C107.725 63.1588 107.713 62.9871 107.658 62.8468C107.613 62.7078 107.536 62.597 107.425 62.5143C107.326 62.4237 107.199 62.3574 107.045 62.3152C106.901 62.2652 106.742 62.227 106.567 62.2005C106.179 62.142 105.862 62.1791 105.615 62.3118C105.369 62.4445 105.198 62.7018 105.102 63.0838L103.137 62.7871C103.233 62.339 103.405 61.9781 103.654 61.7042C103.905 61.4211 104.201 61.2109 104.542 61.0737C104.884 60.9365 105.254 60.8602 105.653 60.8449C106.053 60.8204 106.456 60.8388 106.862 60.9001C107.222 60.9544 107.582 61.0371 107.943 61.1482C108.305 61.2501 108.628 61.3979 108.91 61.5915C109.192 61.7852 109.41 62.0304 109.563 62.3273C109.717 62.6242 109.761 62.9849 109.697 63.4094L109.135 67.1332C109.086 67.4562 109.058 67.7682 109.05 68.0691C109.043 68.37 109.074 68.6012 109.144 68.7628L107.15 68.4619C107.13 68.3455 107.115 68.2299 107.104 68.115C107.103 67.9922 107.108 67.8702 107.117 67.7488C106.754 68.0244 106.351 68.1948 105.907 68.2599C105.463 68.325 105.019 68.3241 104.576 68.2573ZM105.506 67.0668C105.894 67.1253 106.204 67.106 106.435 67.0088C106.667 66.9117 106.847 66.7831 106.975 66.6231C107.104 66.4538 107.192 66.2783 107.239 66.0965C107.294 65.9161 107.33 65.7705 107.347 65.6598L107.458 64.9261C107.364 64.9874 107.253 65.0321 107.126 65.0601C107 65.0789 106.862 65.091 106.71 65.0964C106.558 65.1018 106.402 65.1019 106.243 65.0966C106.083 65.0914 105.923 65.0908 105.762 65.0948C105.6 65.0988 105.447 65.1134 105.302 65.1386C105.156 65.1639 105.022 65.2097 104.899 65.276C104.786 65.3345 104.688 65.4189 104.606 65.5291C104.523 65.6393 104.468 65.7867 104.44 65.9713C104.412 66.1559 104.421 66.313 104.468 66.4428C104.516 66.5633 104.589 66.6688 104.689 66.7593C104.79 66.8406 104.912 66.9063 105.056 66.9563C105.199 67.0063 105.349 67.0431 105.506 67.0668Z" fill="#253746"/>
<path d="M97.8039 67.2348C97.2409 67.1498 96.7466 66.9855 96.3208 66.7419C95.8965 66.489 95.5525 66.1728 95.2889 65.7932C95.0253 65.4136 94.8406 64.9798 94.7349 64.4919C94.6385 64.0054 94.6321 63.4853 94.7157 62.9315C94.7965 62.3963 94.9594 61.9112 95.2044 61.4762C95.4494 61.0412 95.7585 60.682 96.1317 60.3986C96.5062 60.1059 96.9296 59.896 97.4019 59.7691C97.8833 59.6436 98.3963 59.6219 98.9408 59.7041C99.513 59.7905 99.9999 59.9726 100.402 60.2503C100.813 60.5295 101.134 60.8706 101.366 61.2737C101.608 61.669 101.768 62.1131 101.844 62.6061C101.921 63.099 101.921 63.5993 101.844 64.1069C101.834 64.1715 101.825 64.2361 101.815 64.3007C101.806 64.3561 101.793 64.4153 101.774 64.4786L96.6103 63.699C96.5419 64.34 96.6337 64.8258 96.8858 65.1565C97.138 65.4871 97.5409 65.6943 98.0946 65.7779C98.4915 65.8378 98.8475 65.7924 99.1629 65.6418C99.4796 65.482 99.687 65.2962 99.7851 65.0845L101.515 65.3457C101.109 66.1622 100.592 66.7118 99.9639 66.9946C99.336 67.2773 98.616 67.3574 97.8039 67.2348ZM99.9962 62.9359C99.9791 62.4236 99.8701 62.0202 99.6692 61.7255C99.4775 61.4323 99.1417 61.2494 98.6618 61.177C98.3388 61.1282 98.0674 61.1439 97.8477 61.224C97.6293 61.2948 97.4437 61.399 97.2908 61.5363C97.1471 61.6751 97.0344 61.828 96.9525 61.995C96.8799 62.1634 96.8286 62.3161 96.7984 62.4531L99.9962 62.9359Z" fill="#253746"/>
<path d="M87.1404 58.1207L89.0092 58.4029L88.8712 59.3165L88.8989 59.3207C89.1974 58.9693 89.5444 58.7338 89.9401 58.6142C90.3357 58.4946 90.755 58.4682 91.198 58.5351C91.7609 58.6201 92.2294 58.7994 92.6034 59.073C92.9774 59.3465 93.2718 59.6789 93.4865 60.07C93.7012 60.4611 93.8376 60.9017 93.8957 61.3919C93.9553 61.8728 93.9467 62.3671 93.8701 62.8747C93.7976 63.3546 93.6634 63.8062 93.4673 64.2297C93.2712 64.6532 93.0136 65.0155 92.6944 65.3165C92.3844 65.619 92.0157 65.8417 91.5882 65.9849C91.1699 66.1294 90.6978 66.1619 90.1718 66.0825C89.7288 66.0156 89.3313 65.8659 88.9794 65.6335C88.6382 65.3932 88.374 65.0796 88.187 64.6926L88.1593 64.6885L87.6473 68.08L85.6816 67.7832L87.1404 58.1207ZM89.8673 64.5357C90.1903 64.5845 90.4677 64.5603 90.6994 64.4631C90.9404 64.3674 91.1408 64.2277 91.3007 64.0442C91.4712 63.8528 91.6043 63.6275 91.7001 63.3682C91.7973 63.0997 91.8681 62.8178 91.9127 62.5225C91.9559 62.2364 91.9661 61.9501 91.9433 61.6635C91.9297 61.3782 91.8698 61.119 91.7634 60.8859C91.6584 60.6435 91.5049 60.441 91.3029 60.2783C91.1116 60.1079 90.859 59.9989 90.5452 59.9516C90.2222 59.9028 89.9395 59.9309 89.6971 60.0359C89.4653 60.133 89.2642 60.2773 89.0937 60.4687C88.9325 60.6614 88.8026 60.8967 88.704 61.1744C88.6068 61.4429 88.5367 61.7202 88.4935 62.0063C88.4489 62.3016 88.4334 62.5919 88.447 62.8771C88.4711 63.1545 88.5318 63.4091 88.629 63.6408C88.7368 63.8648 88.887 64.0574 89.0798 64.2186C89.2818 64.3812 89.5443 64.4869 89.8673 64.5357Z" fill="#253746"/>
<path d="M79.5691 66.8604C79.366 66.8297 79.1644 66.7899 78.9641 66.7408C78.7717 66.7023 78.5754 66.6585 78.3752 66.6094L78.6197 64.9897C78.7738 65.0319 78.9332 65.0701 79.0979 65.1044C79.2705 65.1493 79.4398 65.1843 79.6059 65.2094C79.9013 65.254 80.1399 65.2051 80.3219 65.0626C80.5038 64.9202 80.6143 64.7198 80.6533 64.4614C80.677 64.3045 80.6716 64.1527 80.6372 64.0059L79.1452 56.9137L81.2355 57.2293L82.1153 62.3742L82.143 62.3784L84.4471 57.7141L86.4821 58.0214L82.2777 65.6128C81.9776 66.1621 81.6196 66.5328 81.2036 66.7249C80.7876 66.9169 80.2428 66.9621 79.5691 66.8604Z" fill="#253746"/>
<path d="M73.0371 63.4956C72.6957 63.444 72.3835 63.3544 72.1008 63.2268C71.818 63.0991 71.5791 62.9309 71.3841 62.7221C71.189 62.5133 71.0471 62.2654 70.9583 61.9782C70.8788 61.6925 70.8669 61.365 70.9226 60.9959C70.9839 60.5898 71.1033 60.268 71.2807 60.0305C71.4688 59.7852 71.6854 59.6008 71.9306 59.4774C72.185 59.3553 72.4608 59.279 72.758 59.2483C73.0659 59.2098 73.371 59.1898 73.6733 59.1883C73.9755 59.1867 74.2718 59.1937 74.5621 59.2092C74.8524 59.2247 75.1124 59.2215 75.3423 59.1996C75.5721 59.1776 75.7593 59.1257 75.9038 59.0436C76.0498 58.9524 76.1334 58.8046 76.1549 58.6001C76.1855 58.3971 76.1737 58.2254 76.1194 58.0851C76.0743 57.9461 75.9966 57.8353 75.8864 57.7526C75.7868 57.662 75.6599 57.5957 75.5058 57.5535C75.3624 57.5035 75.2029 57.4653 75.0276 57.4388C74.64 57.3803 74.3229 57.4174 74.0763 57.5501C73.8298 57.6828 73.6588 57.9401 73.5633 58.3222L71.5976 58.0254C71.6936 57.5773 71.866 57.2164 72.1151 56.9425C72.3655 56.6594 72.6615 56.4492 73.0031 56.312C73.3448 56.1748 73.715 56.0985 74.1137 56.0832C74.5139 56.0587 74.917 56.0771 75.323 56.1384C75.683 56.1927 76.0433 56.2754 76.4041 56.3866C76.7663 56.4884 77.0885 56.6362 77.3708 56.8298C77.653 57.0235 77.8709 57.2687 78.0243 57.5656C78.1777 57.8625 78.2223 58.2232 78.1582 58.6477L77.596 62.3715C77.5472 62.6946 77.519 63.0065 77.5113 63.3074C77.5037 63.6083 77.5348 63.8395 77.6048 64.0011L75.6114 63.7002C75.5912 63.5839 75.5756 63.4682 75.5647 63.3533C75.5643 63.2305 75.5686 63.1085 75.5775 62.9871C75.2149 63.2627 74.8117 63.4331 74.3676 63.4982C73.9236 63.5633 73.4801 63.5625 73.0371 63.4956ZM73.9673 62.3051C74.3549 62.3636 74.6646 62.3443 74.8963 62.2471C75.1281 62.15 75.308 62.0214 75.436 61.8614C75.5653 61.6921 75.6532 61.5166 75.6995 61.3348C75.7551 61.1544 75.7912 61.0088 75.8079 60.8981L75.9187 60.1644C75.8245 60.2257 75.7139 60.2704 75.587 60.2984C75.4614 60.3172 75.3227 60.3293 75.1709 60.3347C75.0191 60.3401 74.8633 60.3402 74.7036 60.3349C74.544 60.3297 74.3836 60.3291 74.2225 60.3331C74.0614 60.3371 73.9082 60.3517 73.7628 60.377C73.6174 60.4022 73.4831 60.448 73.3598 60.5143C73.2471 60.5728 73.1494 60.6572 73.0667 60.7674C72.984 60.8776 72.9287 61.025 72.9009 61.2096C72.873 61.3942 72.8823 61.5513 72.9288 61.6811C72.9767 61.8016 73.0504 61.9071 73.15 61.9976C73.251 62.079 73.3732 62.1446 73.5167 62.1946C73.6602 62.2446 73.8104 62.2814 73.9673 62.3051Z" fill="#253746"/>
<path d="M60.9879 61.6056C60.6465 61.5541 60.3411 61.4513 60.0717 61.2974L60.3392 59.5255C60.3733 59.5495 60.422 59.571 60.4852 59.59C60.5576 59.6104 60.6169 59.624 60.6631 59.631C61.0138 59.684 61.3173 59.6118 61.5736 59.4145C61.8392 59.2186 62.0688 58.8852 62.2627 58.4142C62.4657 57.9445 62.6488 57.3256 62.812 56.5574C62.9752 55.7891 63.139 54.8605 63.3034 53.7715L63.6044 51.7781L70.7197 52.8524L69.2275 62.7363L67.0679 62.4103L68.2843 54.3536L65.3911 53.9168C65.1906 55.057 64.9875 56.1212 64.7816 57.1096C64.585 58.0993 64.3341 58.9487 64.0288 59.6578C63.7249 60.3576 63.3333 60.8884 62.8539 61.2502C62.3759 61.6028 61.7539 61.7213 60.9879 61.6056Z" fill="#253746"/>
</svg>
