<?xml version="1.0" encoding="utf-8"?>
<!-- Generator: Adobe Illustrator 26.1.0, SVG Export Plug-In . SVG Version: 6.00 Build 0)  -->
<svg version="1.1" id="Layer_1" xmlns="http://www.w3.org/2000/svg" xmlns:xlink="http://www.w3.org/1999/xlink" x="0px" y="0px"
	 viewBox="0 0 111 52.7" style="enable-background:new 0 0 111 52.7;" xml:space="preserve">
<style type="text/css">
	.st0{fill:#253746;}
</style>
<g>
	<g>
		<path class="st0" d="M110.9,10.7H87.5V0h-2l-7.8,9.4l-39.5,0c-15.4,0-24.4,10-24.4,26.5c0,5.8,1.3,12,3.6,16.8l17.4,0
			c-1.4-2.6-2.3-5.8-2.3-9.3c0-6.6,3.4-10.4,9.1-10.4l29.9,0v19.7h16V11.4h0.3c1.1,14.5,6.9,22.9,23.1,22.9
			C111.1,29.2,110.9,10.7,110.9,10.7z"/>
		<path class="st0" d="M6.7,12C3,12,0,15.1,0,18.8c0,3.7,3,6.7,6.7,6.7c3.7,0,6.7-3,6.7-6.7C13.5,15.1,10.5,12,6.7,12z"/>
	</g>
</g>
</svg>
