<svg width="127" height="128" viewBox="0 0 127 128" fill="none" xmlns="http://www.w3.org/2000/svg">
<path d="M69.8273 16.2642C72.9515 14.4551 76.945 15.4062 78.9183 18.4294C80.4065 20.7096 83.1128 21.8805 85.7937 21.4042C89.3482 20.7727 92.7756 23.0324 93.5959 26.5481C94.2145 29.1998 96.3571 31.2257 99.0392 31.6951C102.595 32.3174 105.043 35.613 104.612 39.1973C104.286 41.9007 105.606 44.5372 107.966 45.8956C111.095 47.6966 112.268 51.6307 110.637 54.8511C109.406 57.2801 109.745 60.2093 111.498 62.2929C113.822 65.0554 113.579 69.1535 110.944 71.6217C108.957 73.4833 108.274 76.3518 109.209 78.9093C110.448 82.3001 108.818 86.0678 105.498 87.4861C102.994 88.5558 101.371 91.0176 101.374 93.7405C101.379 97.3507 98.5584 100.334 94.9536 100.531C92.2348 100.68 89.8676 102.438 88.9396 104.998C87.7093 108.392 84.0387 110.23 80.5838 109.183C77.978 108.393 75.1523 109.235 73.4047 111.323C71.0877 114.092 67.0097 114.564 64.1215 112.398C61.9431 110.764 58.9996 110.59 56.6432 111.954C53.5191 113.763 49.5256 112.812 47.5523 109.789C46.064 107.509 43.3578 106.338 40.6768 106.814C37.1224 107.446 33.695 105.186 32.8747 101.67C32.2561 99.0185 30.1135 96.9926 27.4313 96.5233C23.8752 95.901 21.4274 92.6053 21.8591 89.0211C22.1846 86.3177 20.8642 83.6812 18.5043 82.3228C15.3755 80.5217 14.2024 76.5877 15.834 73.3672C17.0645 70.9382 16.7255 68.0091 14.9725 65.9255C12.6484 63.1629 12.8916 59.0649 15.5262 56.5967C17.5133 54.735 18.1965 51.8666 17.2619 49.3091C16.0228 45.9182 17.6529 42.1505 20.9728 40.7323C23.4768 39.6625 25.0999 37.2007 25.0964 34.4778C25.0917 30.8677 27.9122 27.8847 31.5169 27.6874C34.2358 27.5387 36.603 25.7804 37.5309 23.2205C38.7613 19.8265 42.4319 17.9881 45.8868 19.0356C48.4925 19.8257 51.3183 18.9831 53.0658 16.895C55.3828 14.1265 59.4608 13.6544 62.3491 15.8204C64.5275 17.454 67.471 17.6287 69.8273 16.2642Z" fill="#FFF3A9"/>
<path d="M70.6517 88.5535L70.6171 88.5491L68.1736 91.088L70.2965 91.357L70.6517 88.5535ZM70.1254 92.7069L66.7104 92.2741L66.9005 90.7743L71.0042 86.5116L72.4694 86.6973L71.854 91.5544L72.9269 91.6904L72.7559 93.0402L71.6829 92.9042L71.4461 94.7732L69.8886 94.5759L70.1254 92.7069Z" fill="#253746"/>
<path d="M60.9361 88.3889C60.9792 87.9254 61.0871 87.5054 61.2599 87.1287C61.4337 86.7444 61.6621 86.4216 61.9453 86.1606C62.2294 85.8918 62.5663 85.7 62.9559 85.5853C63.3543 85.4638 63.7957 85.4338 64.2803 85.4952C64.6495 85.542 64.9921 85.644 65.3082 85.8013C65.632 85.9596 65.9072 86.1624 66.1337 86.41C66.3602 86.6575 66.5266 86.9482 66.6328 87.282C66.7466 87.6169 66.7787 87.9804 66.729 88.3727C66.6773 88.7803 66.5676 89.122 66.3998 89.3977C66.232 89.6734 66.0259 89.913 65.7813 90.1164C65.5376 90.3122 65.2657 90.4848 64.9654 90.6343C64.6728 90.7848 64.3764 90.9348 64.0761 91.0843C63.7768 91.2261 63.4832 91.3843 63.1954 91.5589C62.9076 91.7334 62.6461 91.9464 62.4111 92.198L66.2298 92.6819L66.0515 94.0894L60.1214 93.338C60.1809 92.8688 60.2979 92.4694 60.4725 92.1399C60.6548 91.8113 60.8784 91.5271 61.1433 91.2871C61.4091 91.0394 61.7104 90.8197 62.0473 90.628C62.3919 90.4372 62.7524 90.2445 63.1287 90.0499C63.3212 89.9493 63.5252 89.8501 63.7408 89.7524C63.9574 89.647 64.1561 89.5276 64.3371 89.3942C64.5258 89.2618 64.6862 89.1063 64.8183 88.9277C64.958 88.75 65.0435 88.5381 65.0747 88.292C65.1244 87.8997 65.0475 87.5813 64.844 87.3367C64.6492 87.0854 64.375 86.9373 64.0211 86.8925C63.7827 86.8623 63.5716 86.8941 63.3878 86.9881C63.2126 87.0753 63.0633 87.2048 62.9399 87.3768C62.8175 87.541 62.7191 87.7317 62.6447 87.9489C62.579 88.1594 62.5325 88.3723 62.5052 88.5877L60.9361 88.3889Z" fill="#253746"/>
<path d="M55.865 88.6607C55.8357 88.8914 55.8078 89.1731 55.7813 89.5058C55.7558 89.8308 55.762 90.152 55.7999 90.4694C55.8465 90.7801 55.9446 91.0543 56.0942 91.2921C56.2438 91.5299 56.484 91.6697 56.8147 91.7116C57.1531 91.7545 57.4244 91.6795 57.6286 91.4865C57.8405 91.2946 58.0039 91.0535 58.1188 90.7633C58.2424 90.4663 58.3324 90.1573 58.3887 89.8362C58.446 89.5074 58.4893 89.2277 58.5185 88.9969C58.536 88.8585 58.5531 88.6926 58.5698 88.4994C58.5952 88.2994 58.6056 88.0936 58.6012 87.8821C58.6044 87.6715 58.5918 87.4628 58.5633 87.256C58.5434 87.0425 58.4938 86.8486 58.4142 86.6744C58.3347 86.5002 58.2244 86.3534 58.0832 86.2339C57.9421 86.1144 57.76 86.0406 57.5369 86.0123C57.3139 85.984 57.1191 86.0102 56.9526 86.0907C56.7938 86.1721 56.6541 86.2873 56.5337 86.4361C56.4209 86.586 56.3245 86.7613 56.2443 86.9621C56.1651 87.1553 56.1008 87.3542 56.0515 87.559C56.0021 87.7637 55.9609 87.9656 55.9278 88.1646C55.9035 88.3569 55.8825 88.5222 55.865 88.6607ZM54.2267 88.4531C54.3261 87.6686 54.4864 87.0207 54.7074 86.5095C54.9372 85.9916 55.2071 85.5881 55.5172 85.2992C55.8274 85.0103 56.1681 84.819 56.5395 84.7254C56.9185 84.6328 57.308 84.6118 57.7079 84.6625C58.1156 84.7141 58.4875 84.8316 58.8238 85.0149C59.1678 85.1991 59.4539 85.4698 59.6821 85.827C59.9181 86.1851 60.0789 86.6431 60.1645 87.201C60.2587 87.7522 60.2562 88.42 60.1568 89.2045C60.0544 90.0121 59.8879 90.6787 59.6572 91.2044C59.4351 91.7233 59.1652 92.1267 58.8474 92.4146C58.5372 92.7036 58.1926 92.8944 57.8136 92.987C57.4423 93.0806 57.0528 93.1016 56.6451 93.0499C56.2452 92.9992 55.8732 92.8818 55.5293 92.6975C55.193 92.5143 54.9107 92.244 54.6825 91.8869C54.4542 91.5297 54.2934 91.0717 54.2001 90.5129C54.1155 89.9473 54.1244 89.2607 54.2267 88.4531Z" fill="#253746"/>
<path d="M48.1148 86.7643C48.1578 86.3009 48.2658 85.8808 48.4385 85.5042C48.6123 85.1198 48.8407 84.7971 49.1239 84.536C49.408 84.2672 49.7449 84.0755 50.1346 83.9607C50.5329 83.8393 50.9743 83.8092 51.4589 83.8706C51.8281 83.9174 52.1707 84.0195 52.4868 84.1767C52.8106 84.335 53.0858 84.5379 53.3123 84.7854C53.5389 85.0329 53.7052 85.3236 53.8114 85.6575C53.9253 85.9923 53.9573 86.3559 53.9076 86.7481C53.856 87.1558 53.7463 87.4975 53.5785 87.7732C53.4107 88.0489 53.2045 88.2884 52.9599 88.4919C52.7163 88.6877 52.4443 88.8603 52.144 89.0098C51.8514 89.1603 51.555 89.3103 51.2547 89.4598C50.9554 89.6016 50.6619 89.7598 50.374 89.9343C50.0862 90.1088 49.8248 90.3219 49.5897 90.5734L53.4085 91.0573L53.2301 92.4648L47.3001 91.7134C47.3595 91.2442 47.4766 90.8449 47.6512 90.5153C47.8335 90.1868 48.057 89.9025 48.3219 89.6625C48.5877 89.4149 48.8891 89.1952 49.226 89.0034C49.5706 88.8126 49.931 88.62 50.3073 88.4254C50.4998 88.3247 50.7039 88.2256 50.9194 88.1278C51.136 88.0224 51.3348 87.903 51.5158 87.7697C51.7045 87.6373 51.8649 87.4818 51.9969 87.3031C52.1366 87.1255 52.2221 86.9136 52.2533 86.6674C52.303 86.2752 52.2261 85.9568 52.0227 85.7122C51.8279 85.4608 51.5536 85.3128 51.1998 85.2679C50.9614 85.2377 50.7502 85.2696 50.5664 85.3635C50.3912 85.4507 50.242 85.5803 50.1186 85.7522C49.9962 85.9164 49.8978 86.1072 49.8234 86.3244C49.7576 86.5349 49.7111 86.7478 49.6838 86.9631L48.1148 86.7643Z" fill="#253746"/>
<path d="M88.2537 82.4025C87.9691 82.3664 87.7082 82.2982 87.4708 82.1978C87.2335 82.0973 87.0318 81.9624 86.8657 81.7929C86.6996 81.6233 86.5769 81.4202 86.4974 81.1835C86.4257 80.9478 86.4094 80.6761 86.4483 80.3685C86.4912 80.03 86.584 79.7605 86.7267 79.5597C86.878 79.3523 87.0542 79.1948 87.2554 79.0875C87.4642 78.9811 87.6918 78.9122 87.938 78.8809C88.1929 78.8429 88.4459 78.8202 88.6968 78.813C88.9478 78.8057 89.194 78.8056 89.4354 78.8128C89.6767 78.8199 89.8926 78.8121 90.0831 78.7893C90.2735 78.7666 90.4279 78.7197 90.5463 78.6488C90.6657 78.5701 90.7323 78.4457 90.746 78.2755C90.7675 78.1063 90.7543 77.964 90.7064 77.8485C90.6662 77.734 90.5995 77.6435 90.5063 77.577C90.4218 77.5037 90.3152 77.4512 90.1864 77.4192C90.0662 77.3805 89.9331 77.3519 89.787 77.3334C89.4639 77.2925 89.2013 77.3295 88.9992 77.4446C88.7971 77.5597 88.6601 77.7768 88.5884 78.0959L86.9502 77.8883C87.021 77.5143 87.1571 77.2112 87.3585 76.9788C87.5608 76.7387 87.8025 76.5584 88.0835 76.4377C88.3645 76.317 88.6704 76.2463 89.0013 76.2257C89.3331 76.1974 89.6682 76.2047 90.0066 76.2476C90.3066 76.2856 90.6074 76.3472 90.9093 76.4323C91.212 76.5098 91.4825 76.6261 91.7208 76.7813C91.959 76.9366 92.1447 77.1359 92.278 77.3795C92.4112 77.623 92.4554 77.9216 92.4106 78.2754L92.0174 81.3789C91.9832 81.6481 91.966 81.9077 91.9655 82.1577C91.9651 82.4078 91.9956 82.5992 92.0569 82.732L90.3956 82.5215C90.3765 82.4253 90.3613 82.3296 90.3499 82.2344C90.3472 82.1324 90.3483 82.031 90.3533 81.93C90.0577 82.1661 89.7261 82.3155 89.3587 82.3784C88.9912 82.4412 88.6229 82.4492 88.2537 82.4025ZM89.0026 81.3955C89.3257 81.4364 89.5824 81.4142 89.773 81.329C89.9635 81.2437 90.1104 81.1334 90.2135 80.998C90.3176 80.8548 90.3871 80.7074 90.422 80.5555C90.4645 80.4046 90.4917 80.283 90.5033 80.1907L90.5808 79.5792C90.5038 79.632 90.4129 79.6712 90.308 79.697C90.2041 79.7151 90.0892 79.7279 89.9632 79.7354C89.8372 79.7429 89.7079 79.746 89.5752 79.7448C89.4425 79.7436 89.3093 79.7463 89.1756 79.7528C89.0419 79.7593 88.915 79.7745 88.7947 79.7983C88.6745 79.8222 88.5638 79.8628 88.4627 79.9204C88.3703 79.9712 88.2909 80.0432 88.2244 80.1363C88.1579 80.2295 88.1149 80.353 88.0954 80.5068C88.0759 80.6607 88.0867 80.791 88.1279 80.8978C88.17 80.9969 88.2334 81.0831 88.3179 81.1563C88.4033 81.2218 88.5061 81.2739 88.6263 81.3126C88.7464 81.3513 88.8719 81.3789 89.0026 81.3955Z" fill="#253746"/>
<path d="M80.6268 75.2232L82.2651 75.4308L81.9566 77.8651L84.4571 75.7086L86.3838 75.9527L83.5585 78.2674L85.9511 81.9583L83.9667 81.7069L82.1697 78.9588L81.7754 79.2957L81.5093 81.3955L79.871 81.1879L80.6268 75.2232Z" fill="#253746"/>
<path d="M73.5742 74.3295L75.1317 74.5269L75.0352 75.2883L75.0583 75.2912C75.2992 74.9935 75.5827 74.7911 75.9089 74.6839C76.2351 74.5768 76.5828 74.5466 76.952 74.5934C77.4211 74.6528 77.8137 74.7925 78.1297 75.0123C78.4457 75.232 78.6967 75.5022 78.8828 75.8227C79.0688 76.1433 79.1908 76.5065 79.2487 76.9124C79.3077 77.3106 79.3104 77.7212 79.2568 78.1443C79.2061 78.5442 79.1035 78.922 78.949 79.2775C78.7946 79.633 78.5878 79.939 78.3287 80.1953C78.0773 80.4526 77.7755 80.6449 77.4233 80.7722C77.0788 80.9005 76.6874 80.9368 76.249 80.8813C75.8798 80.8345 75.5468 80.718 75.2499 80.5319C74.9618 80.3391 74.7362 80.0839 74.5733 79.7663L74.5502 79.7634L74.192 82.59L72.5538 82.3824L73.5742 74.3295ZM75.9655 79.6028C76.2347 79.6369 76.4646 79.6113 76.6551 79.5261C76.8534 79.4418 77.0171 79.3218 77.1462 79.1663C77.284 79.004 77.3901 78.8142 77.4645 78.597C77.5399 78.3722 77.5932 78.1366 77.6243 77.8905C77.6546 77.6521 77.6574 77.4141 77.6328 77.1765C77.6158 76.9399 77.5609 76.7259 77.468 76.5344C77.376 76.3351 77.2445 76.17 77.0736 76.0389C76.9113 75.9011 76.6994 75.8157 76.4379 75.7825C76.1687 75.7484 75.9345 75.7774 75.7353 75.8693C75.5447 75.9546 75.3806 76.0784 75.2428 76.2407C75.1127 76.4039 75.0094 76.6018 74.9331 76.8344C74.8577 77.0593 74.8049 77.291 74.7747 77.5294C74.7435 77.7755 74.7363 78.0169 74.7533 78.2535C74.7788 78.4834 74.8343 78.6936 74.9195 78.8841C75.0134 79.0679 75.142 79.2249 75.3053 79.355C75.4762 79.4861 75.6963 79.5687 75.9655 79.6028Z" fill="#253746"/>
<path d="M67.9511 79.8298C67.6665 79.7937 67.4055 79.7255 67.1682 79.6251C66.9308 79.5247 66.7291 79.3897 66.563 79.2202C66.3969 79.0507 66.2742 78.8475 66.1948 78.6109C66.1231 78.3751 66.1067 78.1034 66.1457 77.7958C66.1886 77.4574 66.2813 77.1878 66.424 76.987C66.5753 76.7796 66.7516 76.6222 66.9527 76.5148C67.1616 76.4084 67.3891 76.3396 67.6354 76.3083C67.8902 76.2702 68.1432 76.2476 68.3942 76.2403C68.6452 76.233 68.8914 76.233 69.1327 76.2401C69.3741 76.2473 69.59 76.2394 69.7804 76.2167C69.9709 76.1939 70.1253 76.1471 70.2437 76.0761C70.3631 75.9975 70.4296 75.873 70.4434 75.7029C70.4648 75.5336 70.4516 75.3913 70.4037 75.2758C70.3635 75.1613 70.2968 75.0708 70.2037 75.0043C70.1192 74.9311 70.0125 74.8785 69.8837 74.8465C69.7636 74.8079 69.6304 74.7793 69.4843 74.7608C69.1613 74.7198 68.8987 74.7569 68.6965 74.8719C68.4944 74.987 68.3575 75.2041 68.2858 75.5232L66.6475 75.3156C66.7183 74.9417 66.8544 74.6385 67.0558 74.4061C67.2582 74.1661 67.4998 73.9857 67.7808 73.865C68.0618 73.7443 68.3678 73.6737 68.6986 73.6531C69.0304 73.6248 69.3655 73.6321 69.7039 73.675C70.0039 73.713 70.3048 73.7746 70.6066 73.8597C70.9094 73.9371 71.1799 74.0535 71.4181 74.2087C71.6563 74.3639 71.8421 74.5633 71.9753 74.8068C72.1086 75.0503 72.1528 75.349 72.108 75.7028L71.7147 78.8063C71.6806 79.0755 71.6633 79.3351 71.6629 79.5851C71.6625 79.8351 71.6929 80.0265 71.7542 80.1593L70.0929 79.9488C70.0738 79.8526 70.0586 79.7569 70.0472 79.6617C70.0445 79.5598 70.0456 79.4583 70.0506 79.3573C69.755 79.5934 69.4235 79.7429 69.056 79.8057C68.6886 79.8686 68.3203 79.8766 67.9511 79.8298ZM68.7 78.8228C69.023 78.8637 69.2798 78.8416 69.4703 78.7563C69.6609 78.671 69.8077 78.5607 69.9108 78.4253C70.0149 78.2822 70.0844 78.1347 70.1193 77.9828C70.1619 77.8319 70.189 77.7103 70.2007 77.618L70.2782 77.0065C70.2012 77.0593 70.1102 77.0986 70.0054 77.1244C69.9015 77.1425 69.7865 77.1552 69.6605 77.1627C69.5346 77.1702 69.4052 77.1734 69.2725 77.1722C69.1398 77.171 69.0066 77.1736 68.8729 77.1801C68.7393 77.1867 68.6123 77.2018 68.4921 77.2257C68.3718 77.2495 68.2612 77.2902 68.1601 77.3477C68.0677 77.3985 67.9882 77.4705 67.9217 77.5637C67.8552 77.6568 67.8122 77.7803 67.7927 77.9342C67.7732 78.088 67.7841 78.2183 67.8252 78.3251C67.8674 78.4242 67.9307 78.5104 68.0152 78.5836C68.1007 78.6492 68.2035 78.7013 68.3236 78.7399C68.4438 78.7786 68.5692 78.8062 68.7 78.8228Z" fill="#253746"/>
<path d="M56.9442 69.9129L59.4938 70.236L60.7027 76.1448L60.7258 76.1477L63.2665 70.714L65.8162 71.0371L64.7723 79.2746L63.0764 79.0597L63.8161 73.2219L63.7931 73.219L61.0343 78.8009L59.6383 78.624L58.3518 72.5881L58.3287 72.5852L57.5963 78.3653L55.9003 78.1504L56.9442 69.9129Z" fill="#253746"/>
<path d="M47.398 74.799C46.9838 74.6762 46.6635 74.4285 46.4372 74.056C46.2185 73.6844 46.1404 73.2525 46.2028 72.7603C46.2359 72.4988 46.3128 72.2624 46.4333 72.051C46.5626 71.8329 46.7264 71.6505 46.9247 71.5037C47.123 71.3569 47.3473 71.2525 47.5974 71.1904C47.8485 71.1206 48.1202 71.1042 48.4125 71.1413L52.0236 71.5989L51.2678 77.5635L49.6295 77.3559L49.8956 75.2562L49.1226 75.1582L47.2298 77.0519L45.2223 76.7975L47.398 74.799ZM50.2347 72.5796L48.931 72.4144C48.5542 72.3666 48.2877 72.4032 48.1317 72.5241C47.9767 72.6373 47.8851 72.8054 47.8568 73.0285C47.8276 73.2592 47.8696 73.4521 47.9828 73.6071C48.1037 73.7631 48.3564 73.8655 48.741 73.9142L50.0447 74.0794L50.2347 72.5796Z" fill="#253746"/>
<path d="M41.6692 76.4993C41.2 76.4399 40.7862 76.3132 40.4279 76.1193C40.0695 75.9254 39.7728 75.6768 39.5377 75.3735C39.3036 75.0625 39.1378 74.7055 39.0404 74.3024C38.943 73.8993 38.9245 73.4593 38.985 72.9825C39.0454 72.5056 39.173 72.0841 39.3679 71.7181C39.5637 71.3443 39.8133 71.0399 40.1166 70.8048C40.4209 70.5621 40.7708 70.3915 41.1661 70.2931C41.5625 70.187 41.9953 70.1637 42.4645 70.2232C42.9336 70.2826 43.3469 70.4131 43.7043 70.6147C44.0704 70.8096 44.3704 71.0625 44.6046 71.3735C44.8396 71.6768 45.0054 72.0339 45.1018 72.4447C45.1992 72.8477 45.2177 73.2877 45.1573 73.7646C45.0969 74.2415 44.9692 74.6629 44.7744 75.029C44.5795 75.395 44.3299 75.6994 44.0256 75.9422C43.7223 76.1773 43.3691 76.3435 42.966 76.4409C42.5706 76.5393 42.1383 76.5588 41.6692 76.4993ZM41.8241 75.2764C42.101 75.3115 42.3386 75.2869 42.5368 75.2026C42.7428 75.1193 42.9108 74.996 43.0409 74.8327C43.1796 74.6628 43.2862 74.4692 43.3606 74.252C43.436 74.0271 43.4888 73.7954 43.519 73.557C43.5492 73.3186 43.5559 73.081 43.539 72.8445C43.5221 72.6079 43.4671 72.3938 43.3742 72.2023C43.2889 72.0117 43.157 71.8505 42.9783 71.7184C42.8084 71.5796 42.5849 71.4927 42.308 71.4576C42.0311 71.4225 41.7931 71.451 41.5939 71.543C41.3956 71.6273 41.2276 71.7505 41.0898 71.9128C40.9598 72.0761 40.857 72.2702 40.7816 72.4951C40.7062 72.7199 40.6534 72.9516 40.6232 73.19C40.593 73.4285 40.5864 73.666 40.6033 73.9026C40.6211 74.1315 40.6722 74.345 40.7565 74.5433C40.8495 74.7348 40.9814 74.8961 41.1524 75.0272C41.3233 75.1582 41.5472 75.2413 41.8241 75.2764Z" fill="#253746"/>
<path d="M29.5438 66.4407L32.0936 66.7634L33.3016 72.6718L33.3246 72.6747L35.8663 67.2408L38.416 67.5635L37.3708 75.8008L35.6749 75.5862L36.4156 69.7485L36.3925 69.7456L33.6327 75.3277L32.2367 75.1511L30.9511 69.1156L30.928 69.1127L30.1946 74.8927L28.4986 74.678L29.5438 66.4407Z" fill="#253746"/>
<path d="M77.7676 60.208L79.3366 60.4068L78.8249 64.4448L81.5864 60.6919L83.4438 60.9272L82.688 66.8919L81.119 66.6931L81.6306 62.6551L78.8692 66.408L77.0118 66.1726L77.7676 60.208Z" fill="#253746"/>
<path d="M70.8497 59.3313L72.4188 59.5302L71.9071 63.5681L74.6685 59.8152L76.526 60.0506L75.7702 66.0153L74.2011 65.8165L74.7128 61.7785L71.9514 65.5314L70.0939 65.296L70.8497 59.3313Z" fill="#253746"/>
<path d="M62.3321 58.252L64.7087 58.5532L65.3935 63.0475L65.4396 63.0534L67.2238 58.8719L69.6004 59.173L68.8446 65.1377L67.2986 64.9418L67.8732 60.4077L67.8386 60.4033L65.9834 64.7751L64.4374 64.5792L63.7314 59.8829L63.6968 59.8785L63.1222 64.4126L61.5762 64.2167L62.3321 58.252Z" fill="#253746"/>
<path d="M57.69 63.8766C57.2208 63.8172 56.8071 63.6905 56.4487 63.4966C56.0913 63.295 55.7994 63.0392 55.573 62.7292C55.3466 62.4192 55.1846 62.0626 55.0872 61.6595C54.9975 61.2574 54.9819 60.8256 55.0404 60.3641C55.0969 59.918 55.2226 59.5119 55.4175 59.1459C55.6124 58.7798 55.8619 58.4754 56.1662 58.2326C56.4715 57.9822 56.8189 57.7996 57.2086 57.6848C57.6059 57.5711 58.0315 57.5429 58.4853 57.6004C58.9622 57.6609 59.3701 57.8024 59.7092 58.0251C60.056 58.2488 60.3296 58.5258 60.53 58.8559C60.7391 59.1794 60.8803 59.5451 60.9537 59.9529C61.027 60.3608 61.0369 60.7762 60.9833 61.1992C60.9765 61.2531 60.9696 61.3069 60.9628 61.3608C60.957 61.4069 60.9468 61.4564 60.9323 61.5093L56.6289 60.964C56.5848 61.4976 56.6706 61.8992 56.8866 62.1688C57.1025 62.4385 57.4412 62.6025 57.9026 62.661C58.2334 62.7029 58.5282 62.6582 58.7871 62.5269C59.047 62.3879 59.2155 62.2295 59.2928 62.0517L60.7349 62.2345C60.4135 62.9206 59.9949 63.3872 59.479 63.6344C58.9632 63.8817 58.3668 63.9624 57.69 63.8766ZM59.4256 60.2633C59.4013 59.8383 59.3028 59.5054 59.1301 59.2647C58.9651 59.0249 58.6827 58.8797 58.2827 58.8291C58.0135 58.795 57.7885 58.8133 57.6076 58.8842C57.4276 58.9473 57.2755 59.0375 57.1513 59.1546C57.0347 59.2727 56.9441 59.4019 56.8795 59.5421C56.8225 59.6834 56.7828 59.8112 56.7605 59.9256L59.4256 60.2633Z" fill="#253746"/>
<path d="M48.6544 56.5188L50.2119 56.7162L50.1154 57.4776L50.1385 57.4806C50.3794 57.1829 50.663 56.9804 50.9891 56.8733C51.3153 56.7661 51.663 56.736 52.0322 56.7827C52.5013 56.8422 52.8939 56.9818 53.2099 57.2016C53.5259 57.4214 53.777 57.6915 53.963 58.0121C54.149 58.3326 54.271 58.6958 54.329 59.1017C54.3879 59.5 54.3906 59.9106 54.337 60.3336C54.2863 60.7336 54.1837 61.1113 54.0293 61.4668C53.8748 61.8224 53.668 62.1283 53.4089 62.3846C53.1575 62.6419 52.8557 62.8342 52.5035 62.9615C52.159 63.0898 51.7676 63.1262 51.3292 63.0706C50.96 63.0238 50.627 62.9074 50.3302 62.7213C50.042 62.5285 49.8164 62.2733 49.6535 61.9557L49.6304 61.9527L49.2722 64.7793L47.634 64.5717L48.6544 56.5188ZM51.0457 61.7921C51.3149 61.8262 51.5448 61.8007 51.7353 61.7154C51.9336 61.6311 52.0973 61.5112 52.2264 61.3556C52.3642 61.1933 52.4703 61.0036 52.5447 60.7864C52.6201 60.5615 52.6734 60.326 52.7046 60.0799C52.7348 59.8414 52.7376 59.6034 52.713 59.3659C52.6961 59.1293 52.6411 58.9152 52.5482 58.7237C52.4562 58.5245 52.3247 58.3593 52.1538 58.2283C51.9915 58.0905 51.7796 58.005 51.5181 57.9719C51.2489 57.9378 51.0147 57.9667 50.8155 58.0587C50.6249 58.144 50.4608 58.2677 50.323 58.43C50.1929 58.5933 50.0897 58.7912 50.0133 59.0238C49.9379 59.2487 49.8851 59.4803 49.8549 59.7188C49.8237 59.9649 49.8166 60.2062 49.8335 60.4428C49.859 60.6727 49.9145 60.8829 49.9997 61.0735C50.0937 61.2573 50.2223 61.4143 50.3855 61.5444C50.5565 61.6754 50.7765 61.758 51.0457 61.7921Z" fill="#253746"/>
<path d="M41.9282 55.6665L47.4083 56.3609L46.6525 62.3256L45.0142 62.118L45.6136 57.3878L43.41 57.1085L42.8106 61.8387L41.1724 61.6311L41.9282 55.6665Z" fill="#253746"/>
<path d="M84.2774 47.6343L82.3161 47.3858L82.4726 46.1513L88.0334 46.856L87.877 48.0905L85.9157 47.8419L85.3163 52.5721L83.678 52.3645L84.2774 47.6343Z" fill="#253746"/>
<path d="M77.3572 51.716C77.0726 51.6799 76.8117 51.6117 76.5743 51.5112C76.337 51.4108 76.1353 51.2759 75.9692 51.1063C75.8031 50.9368 75.6804 50.7337 75.6009 50.497C75.5292 50.2613 75.5129 49.9896 75.5518 49.6819C75.5947 49.3435 75.6875 49.0739 75.8302 48.8732C75.9815 48.6657 76.1577 48.5083 76.3589 48.401C76.5677 48.2946 76.7953 48.2257 77.0415 48.1944C77.2964 48.1564 77.5494 48.1337 77.8004 48.1265C78.0513 48.1192 78.2975 48.1191 78.5389 48.1263C78.7802 48.1334 78.9961 48.1256 79.1866 48.1028C79.377 48.0801 79.5314 48.0332 79.6498 47.9623C79.7692 47.8836 79.8358 47.7592 79.8495 47.589C79.871 47.4198 79.8577 47.2775 79.8099 47.162C79.7697 47.0475 79.703 46.957 79.6098 46.8905C79.5253 46.8172 79.4187 46.7646 79.2899 46.7327C79.1697 46.694 79.0366 46.6654 78.8905 46.6469C78.5674 46.606 78.3048 46.643 78.1027 46.7581C77.9006 46.8731 77.7636 47.0902 77.6919 47.4094L76.0537 47.2018C76.1245 46.8278 76.2606 46.5247 76.462 46.2923C76.6643 46.0522 76.906 45.8719 77.187 45.7512C77.468 45.6305 77.7739 45.5598 78.1048 45.5392C78.4366 45.5109 78.7717 45.5182 79.1101 45.5611C79.4101 45.5991 79.711 45.6607 80.0128 45.7458C80.3155 45.8233 80.586 45.9396 80.8243 46.0948C81.0625 46.2501 81.2482 46.4494 81.3815 46.693C81.5147 46.9365 81.5589 47.2351 81.5141 47.5889L81.1209 50.6924C81.0867 50.9616 81.0695 51.2212 81.0691 51.4712C81.0686 51.7213 81.0991 51.9127 81.1604 52.0455L79.4991 51.835C79.48 51.7388 79.4648 51.6431 79.4534 51.5478C79.4507 51.4459 79.4518 51.3445 79.4568 51.2435C79.1612 51.4796 78.8296 51.629 78.4622 51.6919C78.0947 51.7547 77.7264 51.7627 77.3572 51.716ZM78.1061 50.709C78.4292 50.7499 78.6859 50.7277 78.8765 50.6425C79.067 50.5572 79.2139 50.4469 79.317 50.3114C79.4211 50.1683 79.4906 50.0208 79.5255 49.869C79.568 49.7181 79.5952 49.5965 79.6069 49.5042L79.6843 48.8927C79.6073 48.9455 79.5164 48.9847 79.4115 49.0105C79.3076 49.0286 79.1927 49.0414 79.0667 49.0489C78.9407 49.0564 78.8114 49.0595 78.6787 49.0583C78.546 49.0571 78.4128 49.0598 78.2791 49.0663C78.1454 49.0728 78.0185 49.088 77.8982 49.1118C77.778 49.1357 77.6673 49.1763 77.5662 49.2339C77.4738 49.2847 77.3944 49.3567 77.3279 49.4498C77.2614 49.543 77.2184 49.6665 77.1989 49.8203C77.1794 49.9741 77.1902 50.1045 77.2314 50.2113C77.2735 50.3104 77.3369 50.3966 77.4214 50.4698C77.5068 50.5353 77.6096 50.5874 77.7298 50.6261C77.8499 50.6648 77.9754 50.6924 78.1061 50.709Z" fill="#253746"/>
<path d="M71.7131 51.0007C71.244 50.9413 70.8302 50.8146 70.4718 50.6207C70.1144 50.4191 69.8225 50.1633 69.5961 49.8533C69.3697 49.5433 69.2078 49.1867 69.1104 48.7836C69.0207 48.3815 69.005 47.9497 69.0635 47.4882C69.1201 47.0421 69.2457 46.636 69.4406 46.27C69.6355 45.9039 69.8851 45.5995 70.1893 45.3567C70.4946 45.1063 70.8421 44.9237 71.2317 44.8089C71.6291 44.6952 72.0546 44.667 72.5084 44.7245C72.9853 44.785 73.3933 44.9265 73.7323 45.1492C74.0791 45.3729 74.3527 45.6499 74.5531 45.98C74.7622 46.3035 74.9034 46.6692 74.9768 47.077C75.0502 47.4849 75.06 47.9003 75.0064 48.3233C74.9996 48.3772 74.9928 48.431 74.986 48.4849C74.9801 48.531 74.9699 48.5805 74.9554 48.6334L70.6521 48.0881C70.6079 48.6217 70.6938 49.0233 70.9097 49.2929C71.1256 49.5626 71.4643 49.7266 71.9258 49.7851C72.2565 49.827 72.5513 49.7823 72.8102 49.651C73.0701 49.512 73.2387 49.3536 73.3159 49.1758L74.758 49.3586C74.4366 50.0447 74.018 50.5113 73.5022 50.7585C72.9863 51.0058 72.39 51.0865 71.7131 51.0007ZM73.4487 47.3874C73.4244 46.9624 73.326 46.6295 73.1533 46.3888C72.9883 46.149 72.7058 46.0038 72.3058 45.9532C72.0366 45.9191 71.8116 45.9374 71.6307 46.0083C71.4508 46.0714 71.2987 46.1616 71.1744 46.2787C71.0579 46.3968 70.9673 46.526 70.9026 46.6662C70.8456 46.8075 70.806 46.9353 70.7837 47.0497L73.4487 47.3874Z" fill="#253746"/>
<path d="M62.6774 43.6429L64.2349 43.8403L64.1385 44.6017L64.1615 44.6046C64.4024 44.3069 64.686 44.1045 65.0122 43.9974C65.3383 43.8902 65.686 43.86 66.0552 43.9068C66.5244 43.9663 66.917 44.1059 67.233 44.3257C67.549 44.5455 67.8 44.8156 67.986 45.1361C68.172 45.4567 68.294 45.8199 68.352 46.2258C68.4109 46.624 68.4136 47.0346 68.36 47.4577C68.3093 47.8576 68.2067 48.2354 68.0523 48.5909C67.8978 48.9465 67.691 49.2524 67.4319 49.5087C67.1805 49.766 66.8787 49.9583 66.5265 50.0856C66.1821 50.2139 65.7906 50.2502 65.3522 50.1947C64.983 50.1479 64.65 50.0315 64.3532 49.8454C64.065 49.6525 63.8395 49.3973 63.6765 49.0797L63.6535 49.0768L63.2953 51.9034L61.657 51.6958L62.6774 43.6429ZM65.0688 48.9162C65.338 48.9503 65.5678 48.9247 65.7584 48.8395C65.9566 48.7552 66.1203 48.6353 66.2494 48.4797C66.3872 48.3174 66.4933 48.1277 66.5677 47.9105C66.6431 47.6856 66.6964 47.4501 66.7276 47.2039C66.7578 46.9655 66.7606 46.7275 66.736 46.4899C66.7191 46.2533 66.6642 46.0393 66.5712 45.8478C66.4792 45.6486 66.3478 45.4834 66.1768 45.3523C66.0145 45.2146 65.8026 45.1291 65.5411 45.096C65.2719 45.0618 65.0377 45.0908 64.8385 45.1828C64.648 45.268 64.4838 45.3918 64.346 45.5541C64.2159 45.7173 64.1127 45.9153 64.0363 46.1478C63.9609 46.3727 63.9081 46.6044 63.8779 46.8428C63.8467 47.089 63.8396 47.3303 63.8565 47.5669C63.8821 47.7968 63.9375 48.007 64.0228 48.1975C64.1167 48.3814 64.2453 48.5383 64.4085 48.6684C64.5795 48.7995 64.7996 48.8821 65.0688 48.9162Z" fill="#253746"/>
<path d="M56.5632 51.0503C56.394 51.0289 56.2258 50.9997 56.0585 50.9629C55.898 50.9347 55.7341 50.9022 55.5668 50.8654L55.7379 49.5156C55.8667 49.5475 55.9998 49.5761 56.1373 49.6014C56.2815 49.6353 56.4228 49.661 56.5612 49.6785C56.8073 49.7097 57.0046 49.6644 57.1529 49.5425C57.3011 49.4206 57.3889 49.252 57.4162 49.0366C57.4328 48.9059 57.4253 48.7799 57.3938 48.6587L56.0146 42.7986L57.7567 43.0193L58.589 47.2745L58.6121 47.2774L60.4333 43.3585L62.1293 43.5734L58.7879 49.9607C58.5496 50.4228 58.2596 50.7377 57.9179 50.9055C57.5763 51.0732 57.1247 51.1214 56.5632 51.0503Z" fill="#253746"/>
<path d="M51.0734 48.3852C50.7888 48.3492 50.5278 48.2809 50.2905 48.1805C50.0531 48.0801 49.8514 47.9451 49.6853 47.7756C49.5192 47.6061 49.3965 47.403 49.3171 47.1663C49.2454 46.9306 49.229 46.6589 49.268 46.3512C49.3109 46.0128 49.4036 45.7432 49.5463 45.5425C49.6976 45.335 49.8739 45.1776 50.075 45.0702C50.2839 44.9639 50.5114 44.895 50.7577 44.8637C51.0125 44.8256 51.2655 44.803 51.5165 44.7957C51.7675 44.7885 52.0137 44.7884 52.255 44.7955C52.4964 44.8027 52.7123 44.7949 52.9027 44.7721C53.0932 44.7493 53.2476 44.7025 53.366 44.6315C53.4854 44.5529 53.5519 44.4285 53.5657 44.2583C53.5871 44.0891 53.5739 43.9467 53.526 43.8312C53.4858 43.7167 53.4191 43.6262 53.326 43.5597C53.2415 43.4865 53.1348 43.4339 53.006 43.402C52.8859 43.3633 52.7527 43.3347 52.6066 43.3162C52.2836 43.2752 52.021 43.3123 51.8188 43.4274C51.6167 43.5424 51.4798 43.7595 51.4081 44.0786L49.7698 43.8711C49.8406 43.4971 49.9767 43.1939 50.1781 42.9616C50.3805 42.7215 50.6221 42.5411 50.9031 42.4204C51.1841 42.2997 51.4901 42.2291 51.8209 42.2085C52.1527 42.1802 52.4878 42.1875 52.8262 42.2304C53.1262 42.2684 53.4271 42.33 53.7289 42.4151C54.0317 42.4925 54.3022 42.6089 54.5404 42.7641C54.7786 42.9193 54.9644 43.1187 55.0976 43.3622C55.2309 43.6057 55.2751 43.9044 55.2303 44.2582L54.837 47.3617C54.8029 47.6309 54.7856 47.8905 54.7852 48.1405C54.7848 48.3905 54.8152 48.5819 54.8765 48.7148L53.2152 48.5042C53.1961 48.408 53.1809 48.3123 53.1695 48.2171C53.1668 48.1152 53.1679 48.0137 53.1729 47.9128C52.8773 48.1488 52.5458 48.2983 52.1783 48.3611C51.8109 48.424 51.4426 48.432 51.0734 48.3852ZM51.8223 47.3782C52.1453 47.4192 52.4021 47.397 52.5926 47.3117C52.7832 47.2265 52.93 47.1161 53.0331 46.9807C53.1372 46.8376 53.2067 46.6901 53.2416 46.5382C53.2842 46.3873 53.3113 46.2657 53.323 46.1734L53.4005 45.562C53.3235 45.6147 53.2325 45.654 53.1277 45.6798C53.0238 45.6979 52.9088 45.7107 52.7828 45.7181C52.6569 45.7256 52.5275 45.7288 52.3948 45.7276C52.2621 45.7264 52.1289 45.7291 51.9952 45.7356C51.8616 45.7421 51.7346 45.7572 51.6144 45.7811C51.4941 45.8049 51.3835 45.8456 51.2824 45.9031C51.19 45.9539 51.1105 46.0259 51.044 46.1191C50.9775 46.2123 50.9345 46.3358 50.915 46.4896C50.8955 46.6434 50.9064 46.7737 50.9475 46.8805C50.9897 46.9797 51.053 47.0658 51.1375 47.1391C51.223 47.2046 51.3258 47.2567 51.4459 47.2954C51.5661 47.334 51.6915 47.3617 51.8223 47.3782Z" fill="#253746"/>
<path d="M41.0297 47.0538C40.7451 47.0178 40.4895 46.9385 40.2627 46.816L40.4499 45.3392C40.4787 45.3585 40.5195 45.3754 40.5724 45.3899C40.633 45.4054 40.6825 45.4156 40.7209 45.4205C41.0132 45.4575 41.2638 45.3916 41.4728 45.2227C41.6894 45.0548 41.8736 44.7733 42.0252 44.3783C42.1845 43.9843 42.3244 43.4667 42.4447 42.8255C42.565 42.1843 42.6827 41.4099 42.7977 40.5024L43.0082 38.841L48.9383 39.5925L47.8944 47.8299L46.0947 47.6019L46.9455 40.8873L44.5343 40.5817C44.3903 41.5325 44.2427 42.4204 44.0913 43.2452C43.9475 44.071 43.7559 44.7813 43.5164 45.3761C43.2779 45.9633 42.9632 46.4119 42.5723 46.7218C42.1823 47.0241 41.6681 47.1347 41.0297 47.0538Z" fill="#253746"/>
</svg>
