<svg width="171" height="171" viewBox="0 0 171 171" fill="none" xmlns="http://www.w3.org/2000/svg">
<path d="M95.3353 21.8451C99.5353 19.5447 104.801 20.932 107.322 25.0033V25.0033C109.224 28.074 112.776 29.7122 116.346 29.1652V29.1652C121.079 28.44 125.553 31.5447 126.53 36.2327V36.2327C127.266 39.7686 130.044 42.5228 133.586 43.2299V43.2299C138.282 44.1673 141.424 48.6149 140.738 53.3543V53.3543C140.221 56.9289 141.889 60.4668 144.975 62.3427V62.3427C149.068 64.8298 150.499 70.0837 148.234 74.3028V74.3028C146.525 77.485 146.882 81.38 149.141 84.1984V84.1984C152.136 87.9351 151.684 93.3617 148.112 96.5516V96.5516C145.419 98.9576 144.422 102.74 145.581 106.161V106.161C147.117 110.696 144.836 115.641 140.389 117.417V117.417C137.035 118.757 134.805 121.97 134.723 125.581V125.581C134.616 130.368 130.781 134.235 125.995 134.383V134.383C122.385 134.494 119.19 136.751 117.879 140.117V140.117C116.14 144.578 111.214 146.9 106.666 145.402V145.402C103.236 144.272 99.4618 145.3 97.0785 148.014V148.014C93.9186 151.612 88.4959 152.11 84.7342 149.146V149.146C81.8971 146.911 77.9992 146.587 74.8314 148.322V148.322C70.6314 150.622 65.3657 149.235 62.8445 145.163V145.163C60.9429 142.093 57.3911 140.455 53.8209 141.002V141.002C49.0875 141.727 44.6138 138.622 43.6371 133.934V133.934C42.9004 130.398 40.1231 127.644 36.5812 126.937V126.937C31.8851 125.999 28.7431 121.552 29.4287 116.812V116.812C29.9458 113.238 28.278 109.7 25.1915 107.824V107.824C21.0992 105.337 19.6679 100.083 21.9331 95.864V95.864C23.6416 92.6818 23.2844 88.7868 21.0256 85.9684V85.9684C18.0308 82.2317 18.4827 76.805 22.0543 73.6151V73.6151C24.7482 71.2092 25.7447 67.4269 24.5861 64.006V64.006C23.0499 59.4703 25.3306 54.5255 29.7778 52.7495V52.7495C33.1321 51.41 35.3621 48.1967 35.4434 44.5858V44.5858C35.5512 39.7983 39.3855 35.9317 44.172 35.7839V35.7839C47.7821 35.6724 50.9766 33.4156 52.288 30.0502V30.0502C54.0267 25.5883 58.9523 23.2663 63.5007 24.7645V24.7645C66.9312 25.8944 70.705 24.8663 73.0883 22.1525V22.1525C76.2482 18.5543 81.6709 18.057 85.4325 21.0204V21.0204C88.2697 23.2556 92.1675 23.5802 95.3353 21.8451V21.8451Z" fill="#253746"/>
<path d="M119.721 73.6726C120.237 74.4302 120.946 74.8771 121.848 75.0133C122.75 75.1494 123.56 74.9318 124.277 74.3605C124.994 73.7892 125.432 72.9815 125.589 71.9373C125.747 70.8931 125.568 69.9922 125.051 69.2346C124.534 68.477 123.825 68.0301 122.923 67.8939C122.021 67.7578 121.212 67.9754 120.494 68.5467C119.777 69.118 119.34 69.9258 119.182 70.9699C119.024 72.0141 119.204 72.915 119.721 73.6726ZM118.629 66.2747C119.979 65.2649 121.547 64.895 123.335 65.1649C125.123 65.4348 126.505 66.2502 127.48 67.6111C128.474 68.9586 128.833 70.5499 128.556 72.3851C128.279 74.2203 127.465 75.6428 126.115 76.6526C124.784 77.649 123.224 78.0122 121.436 77.7423C119.648 77.4724 118.258 76.6637 117.264 75.3162C116.288 73.9553 115.939 72.3573 116.216 70.5221C116.493 68.6869 117.297 67.2711 118.629 66.2747Z" fill="white"/>
<path d="M108.045 75.4778L109.46 66.104L105.663 65.5308L106.075 62.8017L116.635 64.3961L116.223 67.1251L112.426 66.5519L111.011 75.9256L108.045 75.4778Z" fill="white"/>
<path d="M101.59 69.8917L104.557 70.3395C104.365 70.8607 104.104 71.3553 103.774 71.8234C103.461 72.2938 103.052 72.7499 102.548 73.1917C102.047 73.6176 101.409 73.9339 100.633 74.1404C99.8759 74.3335 99.0464 74.362 98.1446 74.2259C96.3568 73.956 94.966 73.1473 93.972 71.7998C92.9962 70.4389 92.6469 68.8408 92.924 67.0056C93.201 65.1704 94.0054 63.7546 95.3371 62.7582C96.6869 61.7484 98.2558 61.3785 100.043 61.6484C100.945 61.7845 101.728 62.0646 102.392 62.4885C103.075 62.8989 103.593 63.3816 103.946 63.9366C104.299 64.4915 104.557 65.0321 104.72 65.5584C104.899 66.087 105.006 66.6129 105.04 67.1358L102.074 66.688C101.79 65.3507 100.976 64.5805 99.6315 64.3775C98.7297 64.2413 97.9201 64.4589 97.2028 65.0302C96.4855 65.6015 96.048 66.4093 95.8903 67.4534C95.7327 68.4976 95.9122 69.3985 96.4289 70.1561C96.9456 70.9138 97.6548 71.3606 98.5566 71.4968C99.9488 71.707 100.96 71.1719 101.59 69.8917Z" fill="white"/>
<path d="M82.5286 64.3439L88.6986 65.2754C88.6781 64.4471 88.445 63.7404 87.9993 63.1553C87.5695 62.5726 86.9511 62.2203 86.1443 62.0985C85.29 61.9695 84.5477 62.1164 83.9176 62.539C83.3056 62.9483 82.8426 63.5499 82.5286 64.3439ZM87.6866 68.7634L90.7716 69.2292C90.6471 69.5179 90.4376 69.8341 90.1429 70.178C89.8665 70.5084 89.4801 70.8708 88.9837 71.2651C88.5054 71.646 87.8798 71.9318 87.1066 72.1225C86.3359 72.2974 85.5075 72.318 84.6216 72.1842C82.8338 71.9143 81.443 71.1056 80.449 69.7581C79.4732 68.3972 79.1239 66.7991 79.401 64.9639C79.678 63.1287 80.4824 61.7129 81.8141 60.7166C83.1639 59.7068 84.7327 59.3368 86.5205 59.6067C88.1817 59.8575 89.4934 60.6543 90.4557 61.997C91.4363 63.3263 91.7976 64.8452 91.5396 66.5539C91.5181 66.6963 91.4514 66.9774 91.3394 67.3974L91.2418 67.7225L82.224 66.361C82.2216 67.2345 82.4737 67.9764 82.9802 68.5869C83.4868 69.1973 84.1593 69.5658 84.9978 69.6924C85.6306 69.788 86.1888 69.7347 86.6724 69.5326C87.1584 69.3148 87.4964 69.0583 87.6866 68.7634Z" fill="white"/>
<path d="M61.757 68.4894L63.5842 56.3866L68.0931 57.0673L69.5212 65.2927L69.9958 65.3644L73.7886 57.9272L78.2975 58.608L76.4702 70.7108L73.5038 70.2629L74.6682 62.5503L74.1936 62.4787L70.5374 69.8151L67.6897 69.3851L66.3624 61.2964L65.8878 61.2247L64.7233 68.9373L61.757 68.4894Z" fill="white"/>
<path d="M50.366 66.7697L52.1574 54.9042L48.7164 54.3846L49.1643 51.4183L51.8934 51.8303C52.368 51.9019 52.6411 51.7005 52.7128 51.2258L52.874 50.1579L55.9591 50.6237L53.4511 67.2355L50.366 66.7697Z" fill="white"/>
<path d="M99.9656 122.397C99.7217 122.361 99.4988 122.297 99.2968 122.205C99.0948 122.114 98.9242 121.994 98.7849 121.845C98.6456 121.696 98.5442 121.519 98.4808 121.314C98.424 121.11 98.4155 120.876 98.4553 120.612C98.4991 120.322 98.5843 120.092 98.7111 119.922C98.8454 119.747 99.0001 119.616 99.1753 119.527C99.357 119.44 99.554 119.386 99.7663 119.364C99.9862 119.336 100.204 119.322 100.42 119.321C100.636 119.32 100.848 119.325 101.055 119.336C101.262 119.347 101.448 119.345 101.612 119.329C101.776 119.313 101.91 119.276 102.013 119.218C102.118 119.152 102.177 119.047 102.193 118.901C102.215 118.756 102.206 118.633 102.167 118.533C102.135 118.434 102.08 118.354 102.001 118.295C101.93 118.231 101.839 118.183 101.729 118.153C101.627 118.117 101.513 118.09 101.387 118.071C101.111 118.029 100.884 118.056 100.708 118.151C100.532 118.245 100.41 118.429 100.342 118.702L98.9374 118.49C99.006 118.17 99.1292 117.912 99.307 117.717C99.4859 117.514 99.6973 117.364 99.9414 117.266C100.185 117.168 100.45 117.114 100.735 117.103C101.02 117.085 101.308 117.099 101.598 117.142C101.856 117.181 102.113 117.24 102.371 117.32C102.629 117.392 102.86 117.498 103.061 117.636C103.263 117.775 103.418 117.95 103.528 118.162C103.637 118.374 103.669 118.632 103.624 118.935L103.222 121.595C103.187 121.825 103.167 122.048 103.162 122.263C103.156 122.478 103.178 122.643 103.228 122.759L101.804 122.544C101.79 122.461 101.779 122.378 101.771 122.296C101.771 122.208 101.774 122.121 101.78 122.034C101.521 122.231 101.233 122.353 100.916 122.399C100.599 122.446 100.282 122.445 99.9656 122.397ZM100.63 121.547C100.907 121.589 101.128 121.575 101.294 121.506C101.459 121.436 101.588 121.345 101.679 121.23C101.772 121.109 101.834 120.984 101.867 120.854C101.907 120.725 101.933 120.621 101.945 120.542L102.024 120.018C101.957 120.062 101.878 120.094 101.787 120.114C101.697 120.127 101.598 120.136 101.49 120.14C101.381 120.144 101.27 120.144 101.156 120.14C101.042 120.136 100.927 120.136 100.812 120.139C100.697 120.141 100.588 120.152 100.484 120.17C100.38 120.188 100.284 120.221 100.196 120.268C100.116 120.31 100.046 120.37 99.9868 120.449C99.9277 120.528 99.8882 120.633 99.8683 120.765C99.8484 120.896 99.8551 121.009 99.8883 121.101C99.9225 121.187 99.9751 121.263 100.046 121.328C100.118 121.386 100.206 121.433 100.308 121.468C100.411 121.504 100.518 121.53 100.63 121.547Z" fill="white" fill-opacity="0.7"/>
<path d="M91.987 119.979L92.6001 120.072C92.6945 119.938 92.7944 119.767 92.8997 119.561C93.0117 119.355 93.1177 119.122 93.2178 118.86C93.3246 118.6 93.4216 118.315 93.5089 118.004C93.5962 117.694 93.6663 117.364 93.719 117.015L93.8549 116.115L97.9386 116.731L97.3265 120.785L97.989 120.885L97.6173 123.348L96.3022 123.149L96.5142 121.745L93.1424 121.236L92.9304 122.64L91.6153 122.441L91.987 119.979ZM95.9224 120.573L96.3763 117.568L95.0018 117.36L94.9824 117.489C94.9347 117.805 94.8691 118.105 94.7857 118.389C94.709 118.674 94.622 118.938 94.5249 119.179C94.4288 119.414 94.3328 119.626 94.237 119.813C94.1412 120.001 94.0537 120.156 93.9745 120.279L95.9224 120.573Z" fill="white" fill-opacity="0.7"/>
<path d="M88.7097 120.698C88.3076 120.637 87.9545 120.52 87.6504 120.346C87.3463 120.172 87.0963 119.952 86.9004 119.687C86.7055 119.415 86.5703 119.104 86.4948 118.756C86.4194 118.407 86.4125 118.029 86.4742 117.62C86.5359 117.211 86.6542 116.851 86.8292 116.541C87.0052 116.224 87.226 115.967 87.4916 115.771C87.7581 115.569 88.0623 115.429 88.4043 115.353C88.7472 115.27 89.1197 115.258 89.5218 115.319C89.9239 115.38 90.2765 115.5 90.5796 115.681C90.8903 115.856 91.1431 116.08 91.338 116.352C91.5339 116.617 91.6691 116.928 91.7435 117.283C91.819 117.631 91.8259 118.01 91.7642 118.419C91.7025 118.827 91.5842 119.187 91.4091 119.498C91.2341 119.808 91.0134 120.065 90.7468 120.267C90.4813 120.463 90.1742 120.599 89.8257 120.674C89.4838 120.751 89.1118 120.759 88.7097 120.698ZM88.8679 119.65C89.1052 119.686 89.31 119.67 89.4821 119.601C89.6608 119.534 89.8078 119.431 89.923 119.293C90.0457 119.15 90.1413 118.986 90.2097 118.801C90.2791 118.609 90.3293 118.411 90.3601 118.207C90.391 118.002 90.4016 117.798 90.3919 117.594C90.3822 117.391 90.3393 117.206 90.2633 117.039C90.1939 116.873 90.0838 116.732 89.9329 116.615C89.7897 116.492 89.5994 116.413 89.3621 116.377C89.1248 116.341 88.9195 116.361 88.7464 116.436C88.5742 116.504 88.4273 116.607 88.3055 116.743C88.1903 116.881 88.0981 117.046 88.0286 117.238C87.9592 117.429 87.9091 117.628 87.8783 117.832C87.8474 118.036 87.8368 118.24 87.8465 118.444C87.8572 118.641 87.8968 118.826 87.9652 118.998C88.0411 119.164 88.1513 119.306 88.2955 119.422C88.4398 119.538 88.6306 119.614 88.8679 119.65Z" fill="white" fill-opacity="0.7"/>
<path d="M82.588 114.414L86.4443 114.996L86.2846 116.054L83.8324 115.684L83.2203 119.738L81.8162 119.526L82.588 114.414Z" fill="white" fill-opacity="0.7"/>
<path d="M75.8634 114.41C76.013 114.446 76.1745 114.47 76.3479 114.483C76.5213 114.496 76.685 114.483 76.839 114.446C77.0005 114.403 77.1364 114.329 77.2466 114.224C77.3634 114.121 77.4367 113.97 77.4666 113.772C77.5114 113.475 77.4468 113.233 77.273 113.045C77.0991 112.857 76.8836 112.744 76.6265 112.705C76.2706 112.651 75.9824 112.729 75.762 112.938C75.5491 113.142 75.4192 113.422 75.372 113.779L74.0371 113.578C74.1041 113.224 74.2155 112.91 74.3713 112.637C74.5348 112.359 74.7346 112.129 74.9708 111.949C75.2136 111.77 75.4884 111.646 75.7954 111.578C76.1034 111.503 76.4353 111.493 76.7913 111.546C77.0682 111.588 77.3386 111.673 77.6025 111.8C77.8674 111.921 78.0962 112.08 78.2888 112.278C78.4881 112.477 78.639 112.705 78.7416 112.963C78.8442 113.222 78.8721 113.506 78.8253 113.815C78.7746 114.152 78.6474 114.436 78.4438 114.668C78.2468 114.901 77.9798 115.04 77.6429 115.083L77.6399 115.103C78.0093 115.246 78.2813 115.476 78.4561 115.792C78.6308 116.109 78.6883 116.465 78.6286 116.86C78.5739 117.223 78.4526 117.535 78.2648 117.796C78.0835 118.059 77.8598 118.268 77.5937 118.423C77.3275 118.578 77.032 118.682 76.7073 118.734C76.3825 118.786 76.0521 118.787 75.7159 118.736C75.327 118.678 74.9794 118.568 74.6734 118.407C74.3739 118.247 74.128 118.045 73.9357 117.8C73.7444 117.549 73.6095 117.259 73.5311 116.93C73.4592 116.602 73.4569 116.238 73.5242 115.837L74.8591 116.038C74.8378 116.224 74.8406 116.406 74.8674 116.586C74.8953 116.758 74.9492 116.915 75.0292 117.055C75.1102 117.189 75.2177 117.303 75.3517 117.397C75.4924 117.492 75.6649 117.555 75.8693 117.586C76.1857 117.634 76.4671 117.579 76.7135 117.421C76.9609 117.256 77.11 117.005 77.1607 116.669C77.2005 116.405 77.1781 116.196 77.0936 116.042C77.0156 115.888 76.902 115.77 76.7527 115.687C76.6045 115.597 76.4353 115.535 76.2451 115.499C76.0625 115.458 75.8855 115.425 75.7141 115.399L75.8634 114.41Z" fill="white" fill-opacity="0.7"/>
<path d="M68.5013 113.157C68.5479 112.759 68.6492 112.4 68.8055 112.08C68.9627 111.753 69.1657 111.481 69.4144 111.262C69.6642 111.037 69.9577 110.879 70.295 110.788C70.6399 110.692 71.02 110.675 71.4353 110.738C71.7518 110.785 72.0442 110.88 72.3127 111.022C72.5879 111.165 72.8203 111.345 73.0099 111.562C73.1996 111.779 73.3367 112.033 73.4211 112.322C73.5121 112.612 73.5323 112.925 73.4815 113.261C73.4288 113.611 73.3274 113.902 73.1776 114.136C73.0277 114.369 72.8455 114.571 72.6311 114.741C72.4177 114.904 72.1803 115.047 71.9191 115.17C71.6645 115.293 71.4066 115.416 71.1454 115.538C70.8852 115.654 70.6296 115.784 70.3786 115.928C70.1276 116.072 69.8985 116.25 69.6913 116.461L72.9642 116.956L72.7821 118.162L67.6997 117.395C67.7604 116.993 67.8692 116.652 68.026 116.372C68.1895 116.093 68.3875 115.853 68.6201 115.652C68.8537 115.445 69.1172 115.262 69.4108 115.104C69.7109 114.947 70.0247 114.789 70.3522 114.63C70.5197 114.547 70.6972 114.466 70.8845 114.386C71.0728 114.3 71.2461 114.202 71.4044 114.091C71.5694 113.981 71.7104 113.85 71.8276 113.699C71.9514 113.55 72.0292 113.369 72.061 113.158C72.1118 112.822 72.0522 112.547 71.8823 112.332C71.72 112.112 71.4872 111.979 71.184 111.934C70.9796 111.903 70.7975 111.926 70.6375 112.003C70.4852 112.074 70.3542 112.182 70.2446 112.328C70.136 112.466 70.0475 112.628 69.9791 112.814C69.9183 112.993 69.874 113.175 69.8461 113.36L68.5013 113.157Z" fill="white" fill-opacity="0.7"/>
<path d="M64.1364 113.287C64.1065 113.484 64.0768 113.726 64.0472 114.011C64.0186 114.29 64.0173 114.567 64.0434 114.84C64.0771 115.108 64.1558 115.346 64.2796 115.553C64.4033 115.761 64.6069 115.886 64.8904 115.929C65.1804 115.973 65.4152 115.914 65.5947 115.752C65.7808 115.591 65.9262 115.387 66.0309 115.14C66.1432 114.887 66.2269 114.624 66.2819 114.349C66.3378 114.067 66.3807 113.828 66.4106 113.63C66.4285 113.511 66.4466 113.369 66.4649 113.203C66.4908 113.032 66.504 112.855 66.5045 112.673C66.5116 112.492 66.505 112.313 66.4847 112.134C66.472 111.95 66.4333 111.783 66.3685 111.631C66.3037 111.48 66.2119 111.351 66.093 111.246C65.9741 111.14 65.819 111.073 65.6279 111.044C65.4367 111.015 65.2687 111.034 65.1239 111.1C64.9858 111.166 64.8634 111.262 64.7568 111.388C64.6568 111.514 64.5703 111.663 64.4972 111.834C64.4252 111.999 64.3659 112.168 64.3192 112.343C64.2726 112.518 64.233 112.691 64.2006 112.861C64.1757 113.026 64.1543 113.168 64.1364 113.287ZM62.7323 113.075C62.8338 112.402 62.9848 111.849 63.1853 111.414C63.3934 110.973 63.6337 110.632 63.9063 110.39C64.1788 110.148 64.4756 109.99 64.7967 109.917C65.1245 109.846 65.4597 109.836 65.8025 109.887C66.1519 109.94 66.4692 110.049 66.7546 110.213C67.0465 110.378 67.2869 110.617 67.4758 110.929C67.6713 111.241 67.8002 111.638 67.8623 112.12C67.9321 112.596 67.9162 113.17 67.8147 113.842C67.7102 114.534 67.5534 115.104 67.3443 115.551C67.1428 115.992 66.9025 116.334 66.6234 116.575C66.3509 116.817 66.0507 116.974 65.723 117.046C65.4019 117.118 65.0666 117.129 64.7172 117.076C64.3744 117.024 64.0571 116.915 63.7652 116.75C63.4799 116.586 63.2428 116.348 63.0538 116.036C62.8649 115.724 62.7361 115.327 62.6673 114.845C62.6061 114.357 62.6278 113.767 62.7323 113.075Z" fill="white" fill-opacity="0.7"/>
<path d="M57.5126 111.498C57.5591 111.1 57.6605 110.741 57.8167 110.421C57.9739 110.094 58.1769 109.821 58.4257 109.603C58.6755 109.378 58.969 109.22 59.3063 109.129C59.6512 109.033 60.0313 109.016 60.4466 109.079C60.763 109.126 61.0555 109.221 61.324 109.363C61.5991 109.505 61.8315 109.686 62.0212 109.903C62.2109 110.12 62.3479 110.374 62.4324 110.663C62.5234 110.953 62.5435 111.266 62.4928 111.602C62.44 111.952 62.3387 112.243 62.1888 112.477C62.0389 112.71 61.8568 112.912 61.6424 113.082C61.4289 113.245 61.1916 113.388 60.9304 113.511C60.6758 113.634 60.4179 113.757 60.1567 113.879C59.8965 113.995 59.6409 114.125 59.3899 114.269C59.1389 114.413 58.9098 114.591 58.7026 114.802L61.9755 115.297L61.7934 116.503L56.711 115.736C56.7717 115.333 56.8805 114.993 57.0373 114.713C57.2007 114.434 57.3988 114.194 57.6313 113.993C57.8649 113.786 58.1285 113.603 58.422 113.445C58.7222 113.288 59.036 113.13 59.3635 112.971C59.531 112.888 59.7084 112.807 59.8957 112.727C60.084 112.641 60.2574 112.543 60.4157 112.432C60.5806 112.322 60.7217 112.191 60.8389 112.04C60.9626 111.891 61.0404 111.71 61.0723 111.499C61.123 111.163 61.0635 110.888 60.8936 110.673C60.7313 110.453 60.4985 110.32 60.1953 110.275C59.9909 110.244 59.8088 110.267 59.6488 110.344C59.4964 110.415 59.3655 110.523 59.2559 110.669C59.1473 110.807 59.0588 110.969 58.9904 111.155C58.9296 111.334 58.8852 111.516 58.8573 111.701L57.5126 111.498Z" fill="white" fill-opacity="0.7"/>
<path d="M103.164 105.384L104.568 105.596L104.253 107.683L106.447 105.88L108.098 106.129L105.622 108.061L107.604 111.283L105.903 111.026L104.414 108.627L104.068 108.909L103.797 110.708L102.393 110.496L103.164 105.384Z" fill="white" fill-opacity="0.7"/>
<path d="M97.2355 104.489L98.5802 104.692L98.0577 108.153L100.508 104.983L102.1 105.224L101.329 110.336L99.9838 110.133L100.506 106.672L98.0556 109.842L96.4637 109.601L97.2355 104.489Z" fill="white" fill-opacity="0.7"/>
<path d="M91.3742 103.604L92.7783 103.816L92.4976 105.675L94.4851 105.975L94.7657 104.116L96.1698 104.328L95.398 109.44L93.9939 109.228L94.3179 107.083L92.3304 106.783L92.0065 108.928L90.6024 108.716L91.3742 103.604Z" fill="white" fill-opacity="0.7"/>
<path d="M85.4453 102.709L86.79 102.912L86.2675 106.373L88.7182 103.203L90.3101 103.444L89.5383 108.556L88.1936 108.353L88.7161 104.892L86.2654 108.062L84.6735 107.821L85.4453 102.709Z" fill="white" fill-opacity="0.7"/>
<path d="M78.9598 107.04C78.9005 107.031 78.8097 107.007 78.6874 106.968C78.5652 106.929 78.4698 106.891 78.4013 106.854L78.561 105.796C78.5986 105.815 78.6432 105.832 78.6949 105.847C78.7477 105.855 78.8004 105.863 78.8532 105.871C78.9718 105.888 79.0828 105.868 79.186 105.81C79.2968 105.745 79.3983 105.609 79.4905 105.4C79.5892 105.193 79.6855 104.89 79.7791 104.493C79.8794 104.097 79.9788 103.573 80.0773 102.92L80.2281 101.922L84.381 102.549L83.6092 107.661L82.2051 107.449L82.8172 103.395L81.3736 103.177C81.2377 103.898 81.1008 104.514 80.9629 105.026C80.8249 105.538 80.6646 105.952 80.482 106.268C80.306 106.585 80.094 106.806 79.846 106.931C79.6046 107.056 79.3092 107.092 78.9598 107.04Z" fill="white" fill-opacity="0.7"/>
<path d="M73.8482 100.958L75.2523 101.17L74.9373 103.257L77.131 101.454L78.7823 101.703L76.3061 103.635L78.2873 106.857L76.5866 106.6L75.0981 104.201L74.7522 104.483L74.4805 106.282L73.0764 106.07L73.8482 100.958Z" fill="white" fill-opacity="0.7"/>
<path d="M69.971 101.455L68.2901 101.201L68.4498 100.143L73.2158 100.863L73.0561 101.921L71.3751 101.667L70.7631 105.721L69.359 105.509L69.971 101.455Z" fill="white" fill-opacity="0.7"/>
<path d="M64.7791 104.949C64.377 104.888 64.0239 104.771 63.7198 104.597C63.4167 104.416 63.171 104.191 62.9827 103.919C62.7944 103.648 62.6625 103.338 62.587 102.99C62.5181 102.642 62.5135 102.271 62.5732 101.875C62.6309 101.493 62.7473 101.147 62.9223 100.836C63.0973 100.525 63.3181 100.269 63.5847 100.066C63.8522 99.857 64.1546 99.7072 64.4919 99.6165C64.8358 99.5269 65.2023 99.5114 65.5912 99.5701C65.9999 99.6318 66.3477 99.7619 66.6346 99.9602C66.9282 100.16 67.1577 100.403 67.3232 100.691C67.4964 100.974 67.6103 101.291 67.665 101.643C67.7197 101.995 67.7197 102.352 67.665 102.715C67.658 102.761 67.651 102.807 67.6441 102.853C67.6381 102.893 67.6283 102.935 67.6148 102.98L63.9266 102.424C63.8777 102.881 63.9433 103.228 64.1234 103.465C64.3034 103.701 64.5912 103.849 64.9868 103.908C65.2702 103.951 65.5246 103.919 65.7498 103.811C65.9761 103.697 66.1242 103.564 66.1942 103.413L67.4302 103.6C67.1399 104.183 66.7705 104.576 66.322 104.778C65.8735 104.98 65.3592 105.037 64.7791 104.949ZM66.345 101.879C66.3329 101.513 66.255 101.224 66.1115 101.014C65.9745 100.804 65.7347 100.674 65.3919 100.622C65.1612 100.587 64.9673 100.598 64.8104 100.656C64.6544 100.706 64.5218 100.781 64.4126 100.879C64.31 100.978 64.2295 101.087 64.171 101.206C64.1191 101.327 64.0824 101.436 64.0609 101.534L66.345 101.879Z" fill="white" fill-opacity="0.7"/>
<path d="M57.5012 98.4903L60.4379 98.9336C60.662 98.9675 60.869 99.0257 61.0588 99.1083C61.2496 99.1843 61.4095 99.286 61.5386 99.4133C61.6753 99.5351 61.7741 99.6849 61.8349 99.8626C61.8957 100.04 61.9092 100.241 61.8753 100.465C61.8375 100.716 61.7421 100.924 61.589 101.09C61.4368 101.249 61.2483 101.358 61.0235 101.419C61.2762 101.531 61.4761 101.703 61.6233 101.934C61.7714 102.159 61.8186 102.449 61.7648 102.805C61.727 103.056 61.6475 103.269 61.5264 103.447C61.4128 103.618 61.267 103.758 61.0889 103.866C60.9117 103.967 60.7127 104.035 60.4918 104.069C60.2709 104.103 60.0418 104.102 59.8045 104.067L56.7294 103.602L57.5012 98.4903ZM59.2893 103.058C59.4079 103.076 59.5243 103.087 59.6383 103.091C59.7534 103.088 59.8572 103.07 59.9499 103.037C60.0426 103.004 60.1217 102.948 60.1874 102.87C60.2541 102.786 60.2984 102.671 60.3203 102.526C60.3421 102.381 60.3304 102.258 60.285 102.157C60.2462 102.057 60.1841 101.977 60.0988 101.916C60.0135 101.856 59.9125 101.811 59.7958 101.78C59.6802 101.742 59.5597 101.714 59.4345 101.695L58.4556 101.547L58.251 102.902L59.2893 103.058ZM59.5045 100.896C59.6099 100.912 59.7131 100.921 59.814 100.923C59.9148 100.925 60.0078 100.912 60.0929 100.884C60.179 100.85 60.2505 100.8 60.3076 100.734C60.3657 100.662 60.4047 100.56 60.4246 100.428C60.4435 100.303 60.4354 100.201 60.4002 100.121C60.366 100.035 60.3123 99.9665 60.2392 99.915C60.1726 99.8645 60.0876 99.8247 59.9842 99.7956C59.8873 99.7674 59.7861 99.7454 59.6806 99.7295L58.7511 99.5892L58.575 100.756L59.5045 100.896Z" fill="white" fill-opacity="0.7"/>
<path d="M107.368 99.2431C106.966 99.1824 106.613 99.065 106.309 98.891C106.006 98.7104 105.76 98.4845 105.572 98.2133C105.383 97.9422 105.251 97.6324 105.176 97.2839C105.107 96.9364 105.102 96.5648 105.162 96.1693C105.22 95.787 105.336 95.4405 105.511 95.1298C105.686 94.8191 105.907 94.5625 106.173 94.36C106.441 94.151 106.743 94.0011 107.081 93.9104C107.425 93.8208 107.791 93.8053 108.18 93.864C108.589 93.9257 108.937 94.0558 109.223 94.2542C109.517 94.4536 109.747 94.6972 109.912 94.9852C110.085 95.2675 110.199 95.5847 110.254 95.9368C110.309 96.289 110.309 96.6463 110.254 97.0088C110.247 97.055 110.24 97.1011 110.233 97.1473C110.227 97.1868 110.217 97.2292 110.204 97.2743L106.515 96.7175C106.466 97.1753 106.532 97.5223 106.712 97.7585C106.892 97.9947 107.18 98.1427 107.576 98.2024C107.859 98.2452 108.113 98.2128 108.339 98.1052C108.565 97.9911 108.713 97.8584 108.783 97.7071L110.019 97.8937C109.729 98.4769 109.359 98.8695 108.911 99.0715C108.462 99.2734 107.948 99.3306 107.368 99.2431ZM108.934 96.1724C108.922 95.8065 108.844 95.5183 108.7 95.3079C108.563 95.0984 108.324 94.9678 107.981 94.9161C107.75 94.8812 107.556 94.8924 107.399 94.9496C107.243 95.0002 107.111 95.0746 107.001 95.1727C106.899 95.2719 106.818 95.3811 106.76 95.5003C106.708 95.6206 106.671 95.7297 106.65 95.8276L108.934 96.1724Z" fill="white" fill-opacity="0.7"/>
<path d="M101.365 92.9767L105.221 93.5589L105.061 94.6169L102.609 94.2467L101.997 98.3007L100.593 98.0888L101.365 92.9767Z" fill="white" fill-opacity="0.7"/>
<path d="M95.4541 92.0843L96.8582 92.2963L96.5775 94.1552L98.565 94.4553L98.8457 92.5963L100.25 92.8083L99.4779 97.9204L98.0739 97.7084L98.3978 95.5627L96.4103 95.2627L96.0864 97.4083L94.6823 97.1964L95.4541 92.0843Z" fill="white" fill-opacity="0.7"/>
<path d="M89.5252 91.1892L90.87 91.3922L90.3475 94.853L92.7981 91.6833L94.3901 91.9237L93.6183 97.0357L92.2735 96.8327L92.796 93.3719L90.3454 96.5416L88.7534 96.3012L89.5252 91.1892Z" fill="white" fill-opacity="0.7"/>
<path d="M85.6481 91.6859L83.9671 91.4322L84.1269 90.3741L88.8929 91.0937L88.7331 92.1517L87.0522 91.8979L86.4401 95.952L85.036 95.74L85.6481 91.6859Z" fill="white" fill-opacity="0.7"/>
<path d="M78.633 89.5447L79.9778 89.7477L79.4553 93.2085L81.9059 90.0388L83.4979 90.2792L82.7261 95.3912L81.3813 95.1882L81.9038 91.7274L79.4532 94.8971L77.8612 94.6568L78.633 89.5447ZM81.1481 89.2974C80.9174 89.2626 80.7039 89.2034 80.5075 89.1198C80.3177 89.0372 80.1554 88.9284 80.0207 88.7934C79.887 88.6519 79.7875 88.4852 79.722 88.2932C79.6632 88.1023 79.6532 87.8783 79.692 87.6212L80.7402 87.7795C80.7195 88.0056 80.7474 88.1784 80.8237 88.2978C80.9001 88.4172 81.047 88.4933 81.2646 88.5261C81.4755 88.558 81.6379 88.5319 81.7517 88.448C81.8665 88.3574 81.9446 88.1973 81.986 87.9676L83.0342 88.1258C82.9953 88.3829 82.9164 88.5935 82.7972 88.7575C82.6846 88.9226 82.5436 89.053 82.3741 89.1487C82.2055 89.2379 82.0151 89.2934 81.8028 89.3153C81.5905 89.3372 81.3723 89.3312 81.1481 89.2974Z" fill="white" fill-opacity="0.7"/>
<path d="M74.5272 94.2849C74.1251 94.2242 73.772 94.1068 73.4679 93.9328C73.1648 93.7522 72.9191 93.5263 72.7308 93.2552C72.5425 92.984 72.4106 92.6742 72.3351 92.3257C72.2662 91.9782 72.2616 91.6066 72.3213 91.2111C72.3791 90.8288 72.4954 90.4823 72.6704 90.1716C72.8454 89.8609 73.0662 89.6043 73.3328 89.4018C73.6003 89.1928 73.9027 89.0429 74.24 88.9522C74.584 88.8626 74.9504 88.8471 75.3393 88.9058C75.748 88.9675 76.0958 89.0976 76.3827 89.296C76.6763 89.4954 76.9058 89.739 77.0713 90.027C77.2445 90.3093 77.3584 90.6265 77.4131 90.9786C77.4678 91.3308 77.4678 91.6881 77.4131 92.0507C77.4061 92.0968 77.3991 92.1429 77.3922 92.1891C77.3862 92.2286 77.3764 92.271 77.3629 92.3161L73.6747 91.7593C73.6258 92.2171 73.6914 92.5641 73.8715 92.8003C74.0515 93.0365 74.3394 93.1845 74.7349 93.2442C75.0183 93.287 75.2727 93.2546 75.4979 93.147C75.7242 93.0329 75.8723 92.9002 75.9423 92.7489L77.1783 92.9355C76.888 93.5187 76.5186 93.9113 76.0701 94.1133C75.6216 94.3153 75.1073 94.3725 74.5272 94.2849ZM76.0931 91.2142C76.081 90.8483 76.0031 90.5601 75.8596 90.3497C75.7226 90.1402 75.4828 90.0096 75.14 89.9579C74.9093 89.923 74.7154 89.9342 74.5585 89.9914C74.4025 90.042 74.2699 90.1164 74.1607 90.2146C74.0581 90.3137 73.9776 90.4229 73.9191 90.5422C73.8672 90.6624 73.8305 90.7715 73.809 90.8694L76.0931 91.2142Z" fill="white" fill-opacity="0.7"/>
<path d="M66.9104 87.7748L68.2453 87.9764L68.1467 88.629L68.1665 88.632C68.3797 88.381 68.6276 88.2128 68.9102 88.1273C69.1928 88.0419 69.4923 88.0231 69.8087 88.0708C70.2108 88.1315 70.5454 88.2596 70.8126 88.455C71.0797 88.6504 71.29 88.8878 71.4433 89.1671C71.5967 89.4465 71.6941 89.7612 71.7357 90.1114C71.7782 90.4549 71.7721 90.8079 71.7173 91.1705C71.6656 91.5133 71.5697 91.8359 71.4296 92.1384C71.2896 92.4409 71.1055 92.6996 70.8776 92.9147C70.6562 93.1307 70.3928 93.2898 70.0874 93.3921C69.7887 93.4953 69.4514 93.5185 69.0757 93.4618C68.7593 93.414 68.4754 93.3071 68.224 93.1411C67.9803 92.9694 67.7916 92.7454 67.658 92.4691L67.6382 92.4661L67.2725 94.8886L65.8684 94.6766L66.9104 87.7748ZM68.8582 92.357C69.0889 92.3918 69.287 92.3745 69.4526 92.3051C69.6247 92.2367 69.7679 92.137 69.8821 92.0059C70.0038 91.8692 70.0989 91.7083 70.1673 91.5231C70.2368 91.3313 70.2874 91.1299 70.3192 90.919C70.3501 90.7146 70.3574 90.5101 70.3411 90.3053C70.3314 90.1016 70.2885 89.9165 70.2126 89.7499C70.1376 89.5768 70.0279 89.4321 69.8837 89.316C69.747 89.1942 69.5666 89.1164 69.3424 89.0826C69.1117 89.0477 68.9098 89.0678 68.7367 89.1428C68.5711 89.2122 68.4274 89.3152 68.3057 89.4519C68.1905 89.5896 68.0977 89.7576 68.0273 89.956C67.9579 90.1478 67.9078 90.3459 67.8769 90.5502C67.8451 90.7612 67.834 90.9685 67.8437 91.1722C67.861 91.3704 67.9043 91.5522 67.9737 91.7178C68.0507 91.8777 68.158 92.0153 68.2957 92.1305C68.44 92.2466 68.6275 92.3221 68.8582 92.357Z" fill="white" fill-opacity="0.7"/>
<path d="M58.4525 86.4979L61.3892 86.9413C61.6134 86.9751 61.8203 87.0334 62.0101 87.1159C62.2009 87.1919 62.3609 87.2936 62.49 87.421C62.6266 87.5428 62.7254 87.6925 62.7862 87.8703C62.847 88.048 62.8605 88.2489 62.8267 88.4731C62.7889 88.7235 62.6934 88.9316 62.5403 89.0973C62.3882 89.2564 62.1997 89.3661 61.9748 89.4266C62.2275 89.5389 62.4274 89.7107 62.5746 89.9419C62.7227 90.1665 62.7699 90.4568 62.7161 90.8128C62.6783 91.0633 62.5988 91.2771 62.4777 91.4544C62.3641 91.626 62.2183 91.7658 62.0402 91.8737C61.8631 91.9751 61.6641 92.0428 61.4432 92.0769C61.2223 92.111 60.9932 92.1101 60.7559 92.0743L57.6807 91.61L58.4525 86.4979ZM60.2406 91.066C60.3593 91.084 60.4756 91.0948 60.5897 91.0985C60.7047 91.0957 60.8086 91.0776 60.9012 91.0444C60.9939 91.0112 61.0731 90.9558 61.1387 90.878C61.2054 90.7937 61.2497 90.679 61.2716 90.534C61.2935 90.389 61.2817 90.2658 61.2363 90.1646C61.1975 90.0643 61.1355 89.9842 61.0501 89.9241C60.9648 89.864 60.8638 89.8184 60.7472 89.7873C60.6315 89.7497 60.511 89.7214 60.3858 89.7024L59.4069 89.5547L59.2024 90.9093L60.2406 91.066ZM60.4558 88.9039C60.5613 88.9199 60.6644 88.9287 60.7653 88.9304C60.8662 88.9322 60.9591 88.9193 61.0442 88.8916C61.1303 88.8574 61.2019 88.8076 61.2589 88.742C61.317 88.6699 61.356 88.5679 61.3759 88.4361C61.3948 88.3108 61.3867 88.2085 61.3515 88.129C61.3173 88.0429 61.2636 87.9741 61.1905 87.9226C61.124 87.8721 61.039 87.8323 60.9355 87.8032C60.8386 87.7751 60.7374 87.7531 60.6319 87.7372L59.7025 87.5968L59.5263 88.7636L60.4558 88.9039Z" fill="white" fill-opacity="0.7"/>
</svg>
