<svg width="678" height="110" viewBox="0 0 678 110" fill="none" xmlns="http://www.w3.org/2000/svg">
<g clip-path="url(#clip0_2580_6970)">
<path d="M103.369 2.26758L74.5583 106.707H28.8107L0 2.26758H27.4138L52.3831 104.724H52.7321L77.7015 2.26758H103.369Z" fill="#253746"/>
<path d="M214.943 51.0176V80.5977C214.943 86.2161 218.959 89.6866 225.769 89.6866C229.436 89.6866 232.753 88.8605 235.547 87.3729V104.559C230.483 106.873 224.023 108.03 217.911 108.03C200.625 108.03 190.148 99.1059 190.148 83.9028V50.8522V34.9879V11.8525H216.34V17.8017C216.34 27.3863 207.609 33.6659 192.244 34.8227V35.1532H236.944V51.0176H214.943Z" fill="#253746"/>
<path d="M343.29 2.26758H367.91V69.1949C367.91 93.8176 350.973 108.195 322.337 108.195C294.051 108.195 277.113 93.8176 277.113 69.1949V2.26758H302.956V70.3517C302.956 82.0847 310.464 89.0253 323.036 89.0253C335.608 89.0253 343.116 82.0847 343.116 70.3517V2.26758H343.29Z" fill="#253746"/>
<path d="M460.089 63.7415V106.873H435.293V64.8983C435.293 56.8009 430.753 52.1739 423.419 52.1739C415.039 52.1739 410.149 58.2885 410.149 68.3689V106.708H385.355V35.1529H409.975V60.7671H410.324C410.324 43.7461 419.056 33.8309 433.899 33.8309C450.31 33.6657 460.089 44.9029 460.089 63.7415Z" fill="#253746"/>
<path d="M473.359 12.0176H498.155V26.8903H473.359V12.0176ZM473.359 35.153H498.155V106.708H473.359V35.153Z" fill="#253746"/>
<path d="M511.434 70.8478C511.434 47.5472 526.625 33.666 552.292 33.666C577.959 33.666 592.976 47.5472 592.976 70.8478C592.976 94.3137 577.959 108.195 552.292 108.195C526.625 108.195 511.434 94.3137 511.434 70.8478ZM567.832 70.8478C567.832 59.1148 562.07 52.0092 552.117 52.0092C542.339 52.0092 536.403 59.1148 536.403 70.8478C536.403 82.7461 542.164 89.6867 552.117 89.6867C562.07 89.6867 567.832 82.7461 567.832 70.8478Z" fill="#253746"/>
<path d="M678.001 63.7415V106.873H653.205V64.8983C653.205 56.8009 648.664 52.1739 641.33 52.1739C632.95 52.1739 628.061 58.2885 628.061 68.3689V106.708H603.266V35.1529H628.061V60.7671H628.41C628.41 43.7461 637.142 33.8309 651.985 33.8309C668.396 33.6657 678.001 44.9029 678.001 63.7415Z" fill="#253746"/>
<path d="M152.964 81.5882C151.044 87.2066 145.805 90.6771 138.821 90.6771C130.09 90.6771 124.677 84.3976 123.979 73.4907H176.886V71.0121C176.886 47.5461 162.742 33.8301 138.646 33.8301C114.201 33.8301 99.8828 47.5461 99.8828 71.0121C99.8828 94.478 114.201 108.359 138.646 108.359C159.425 108.359 173.568 98.4439 176.711 81.7536H152.964V81.5882ZM138.821 51.1816C146.853 51.1816 151.742 56.8001 152.964 66.7155H124.153C125.201 56.8001 130.614 51.1816 138.821 51.1816Z" fill="#253746"/>
</g>
<defs>
<clipPath id="clip0_2580_6970">
<rect width="678" height="110" fill="white"/>
</clipPath>
</defs>
</svg>
