<svg width="280" height="251" viewBox="0 0 280 251" fill="none" xmlns="http://www.w3.org/2000/svg">
<path fill-rule="evenodd" clip-rule="evenodd" d="M84.3647 85.3998C89.9704 89.9907 96.2202 92.375 102.582 92.375C103.473 92.375 104.368 92.3272 105.263 92.2315C123.782 90.2879 136.766 68.1637 134.21 42.9177C132.743 28.4141 126.269 15.1642 116.888 7.47866C110.499 2.2423 103.283 -0.131729 95.9898 0.643743C77.4744 2.58734 64.4868 24.7114 67.0389 49.9576C68.5097 64.4644 74.9867 77.7108 84.3647 85.3998ZM174.738 92.2315C175.633 92.3272 176.525 92.375 177.419 92.375C183.781 92.375 190.031 89.9907 195.637 85.3964C205.019 77.7109 211.493 64.461 212.96 49.9576C215.516 24.7115 202.531 2.58747 184.012 0.643881C176.758 -0.131591 169.509 2.23902 163.113 7.47879C153.731 15.1643 147.257 28.4142 145.79 42.9178C143.234 68.1637 156.219 90.2879 174.738 92.2315ZM188.393 115.227C176.11 101.449 158.473 93.5469 139.999 93.5469C121.526 93.5469 103.889 101.449 91.6051 115.227L51.4639 160.277C38.7417 172.98 33.4634 191.049 37.3434 208.612C41.3293 226.64 54.2162 240.86 72.7102 247.622C91.0464 254.329 111.847 249.076 125.687 234.21C129.426 230.196 134.509 227.985 139.999 227.985C145.49 227.985 150.573 230.196 154.312 234.21C164.159 244.785 177.525 250.5 191.026 250.5C196.499 250.5 201.997 249.559 207.288 247.622C225.782 240.86 238.669 226.64 242.655 208.612C246.535 191.049 241.257 172.98 228.675 160.424L188.393 115.227ZM243.522 58.3558C251.013 55.9318 258.268 56.3986 264.499 59.7122C280.234 68.0728 284.187 92.4685 273.311 114.093C267.077 126.485 256.842 135.989 245.931 139.519C242.779 140.539 239.667 141.047 236.66 141.047C232.514 141.047 228.564 140.085 224.955 138.166C209.22 129.798 205.267 105.403 216.14 83.7815C222.377 71.3898 232.615 61.8822 243.522 58.3558ZM63.8601 83.7815C74.7334 105.403 70.7802 129.798 55.0447 138.166C51.436 140.085 47.4861 141.047 43.3402 141.047C40.333 141.047 37.221 140.539 34.0685 139.519C23.158 135.989 12.9233 126.485 6.68929 114.093C-4.18742 92.4685 -0.234001 68.0728 15.5014 59.7122C21.7322 56.3986 28.9865 55.9318 36.4777 58.3558C47.3848 61.8822 57.6227 71.3898 63.8601 83.7815Z" fill="black"/>
</svg>
